G04 start of page 2 for group 0 idx 0 *
G04 Title: (unknown), component *
G04 Creator: pcb v4.1.3-ge2c36c29 *
G04 CreationDate: Sun Jul 18 18:04:05 2021 UTC *
G04 For: p *
G04 Format: Gerber/RS-274X *
G04 PCB-Dimensions (mil): 6000.00 5000.00 *
G04 PCB-Coordinate-Origin: lower left *
%MOIN*%
%FSLAX25Y25*%
%LNTOP*%
%ADD26C,0.0394*%
%ADD25C,0.1220*%
%ADD24C,0.0354*%
%ADD23C,0.0197*%
%ADD22C,0.2638*%
%ADD21C,0.2559*%
%ADD20C,0.0600*%
%ADD19C,0.0512*%
%ADD18C,0.0433*%
%ADD17C,0.0001*%
%ADD16C,0.0669*%
%ADD15C,0.0257*%
%ADD14C,0.0179*%
%ADD13C,0.0250*%
%ADD12C,0.0400*%
%ADD11C,0.0100*%
G54D11*X339500Y191000D02*X344500D01*
X327500Y185000D02*X344500D01*
X345000Y190906D02*X350406D01*
X345000Y185000D02*X352500D01*
X339500Y191000D02*X310500Y220000D01*
X350406Y190906D02*X371500Y212000D01*
X378500D01*
X352500Y185000D02*X369500Y202000D01*
X378500D01*
X305036Y207464D02*X327500Y185000D01*
X311359Y285859D02*Y278445D01*
X310414Y277500D01*
X313327Y285971D02*Y283173D01*
X315500Y281000D01*
Y279000D01*
X313327Y286343D02*Y291715D01*
G54D12*X304641Y292029D02*X313641D01*
G54D11*X313327Y291715D02*X313641Y292029D01*
X291674Y285971D02*Y269971D01*
G54D13*X303414Y277500D02*X310414D01*
G54D12*X354000Y255866D02*X345000D01*
X353625Y249961D02*X345000D01*
G54D11*X355000Y271457D02*X368457Y258000D01*
X336139Y255357D02*Y246695D01*
X338894Y243939D01*
X344013D01*
G54D12*X385586Y293000D02*Y239086D01*
X378500Y232000D01*
X371586D01*
X353625Y249961D01*
G54D11*X368457Y258000D02*X378500D01*
X319029Y297579D02*X333878D01*
X341000Y290457D01*
X319029Y295611D02*X325846D01*
X331000Y290457D01*
X319029Y293642D02*X323815D01*
X325000Y292457D01*
X339191Y299548D02*X350706Y288034D01*
Y277798D02*X348737Y275829D01*
X332499Y309390D02*X373889Y268000D01*
X378500D01*
X357826Y288000D02*X378692D01*
X325000Y292457D02*Y286457D01*
X323000Y290457D02*Y279457D01*
X325000Y286457D02*X331000Y280457D01*
X319029Y291674D02*X321783D01*
X323000Y290457D01*
X298000Y271457D02*X355000D01*
X323000Y279457D02*X327000Y275457D01*
X336000D01*
X341000Y280457D01*
X350706Y288034D02*Y277798D01*
X305452Y319029D02*Y339548D01*
X313326Y319029D02*Y316260D01*
X314586Y315000D01*
X315586D01*
X316586Y316000D01*
X305452Y339548D02*X292500Y352500D01*
G54D12*X312500D02*X325029Y339971D01*
G54D11*X282500Y344000D02*Y352500D01*
X287500Y355000D02*Y346000D01*
X292500Y341000D01*
X297330D01*
X285612Y328000D02*X287641Y330029D01*
G54D14*X286670Y320000D02*X287673Y318997D01*
G54D11*X291673D01*
X287641Y330029D02*X296641D01*
X299547Y327123D01*
Y319029D01*
G54D12*X319586Y323000D02*X328586D01*
G54D11*X316586Y316000D02*X329826D01*
X267484Y303484D02*X285971D01*
X265000Y310000D02*X269548Y305452D01*
X285971D01*
Y301515D02*X269058D01*
X267000Y299457D01*
X264484Y300484D02*X267484Y303484D01*
X242500Y290000D02*X262500D01*
X242500Y315000D02*X262500D01*
G54D13*X257500Y309000D02*Y296000D01*
G54D11*X262500Y290000D02*X264484Y291984D01*
Y300484D01*
G54D12*X265000Y320000D02*X271914D01*
G54D11*X262500Y315000D02*X265000Y312500D01*
Y310000D01*
X285938Y313326D02*X280326D01*
X279000Y312000D01*
X273000Y297000D02*X277586D01*
X280133Y299547D01*
G54D12*X325029Y339971D02*X362359D01*
X322500Y352500D02*X371830D01*
X363500Y326000D02*X347500D01*
X337500D02*X345500D01*
X363500Y319900D02*X375700D01*
Y338200D01*
X371830Y352500D02*X376359Y347971D01*
Y341971D01*
X363500Y326000D02*Y340000D01*
X375700Y338200D02*X377500Y340000D01*
X363500Y313800D02*X349300D01*
X347500Y312000D01*
X328586Y323000D02*X339586Y312000D01*
X346586D01*
G54D11*X319029Y299548D02*X339191D01*
X319029Y309390D02*X332499D01*
X329826Y316000D02*X357826Y288000D01*
G54D12*X370500Y298000D02*X363500Y305000D01*
Y313800D01*
X370500Y298000D02*X380586D01*
X385586Y293000D01*
G54D11*X303484Y319029D02*Y334846D01*
G54D12*X302500Y352500D02*X312500D01*
G54D11*X272500D02*X278000Y358000D01*
X284500D01*
X287500Y355000D01*
X301515Y319029D02*Y331985D01*
X293641Y325029D02*Y319029D01*
X301515Y331985D02*X299500Y334000D01*
X292500D01*
X282500Y344000D01*
X297330Y341000D02*X303484Y334846D01*
X279000Y328000D02*X285612D01*
G54D12*X308586Y312000D02*X293586D01*
X291586Y314000D01*
G54D11*X285971Y313326D02*X290912D01*
X291673Y319029D02*Y314087D01*
X290912Y313326D02*X291673Y314087D01*
G54D14*X279000Y320000D02*X286670D01*
G54D12*X271914Y328000D02*Y312000D01*
G54D11*X285971Y297578D02*X281078D01*
X285971Y295610D02*X282110D01*
X285971Y293641D02*X283141D01*
X281078Y297578D02*X277500Y294000D01*
X282110Y295610D02*X278500Y292000D01*
X283141Y293641D02*X280500Y291000D01*
G54D12*X297612Y312000D02*Y299000D01*
X294641Y296029D01*
G54D15*X291641D02*X293641D01*
G54D11*X290159Y299547D02*X291641Y301029D01*
G54D12*X297612Y299058D02*X304641Y292029D01*
G54D11*X286190Y297578D02*X290092D01*
X291641Y296029D01*
X290159Y299547D02*X280133D01*
X277500Y294000D02*X275500Y292000D01*
X285971Y291673D02*X288784D01*
X290000Y290457D01*
Y289457D01*
X285971Y285428D01*
G54D13*X273000Y271586D02*Y289914D01*
G54D11*X267000Y299457D02*Y265457D01*
X280500Y269000D02*Y291000D01*
X285971Y285428D02*Y269529D01*
G54D13*X275586Y269000D02*X273000Y271586D01*
X275586Y269000D02*Y237000D01*
G54D11*X249043Y248000D02*X270586D01*
G54D13*X253000Y265457D02*X259914D01*
X255586Y217000D02*X275586Y237000D01*
X256957Y238000D02*X249043D01*
Y227000D01*
Y217000D02*X255043D01*
X241957D02*Y227000D01*
Y238000D02*Y248000D01*
G54D11*X285971Y269529D02*X292500Y263000D01*
X283500Y248000D02*Y266000D01*
X278500Y292000D02*Y239000D01*
X285256Y232244D01*
X283500Y266000D02*X280500Y269000D01*
X283500Y248000D02*X287445Y244055D01*
G54D12*X293819Y255866D02*X302591D01*
X303000Y255457D01*
X298740Y261740D02*Y257540D01*
G54D11*X301493Y241183D02*X298621Y244055D01*
X287445D02*X298621D01*
X285256Y232244D02*X293819D01*
X310500Y245000D02*Y220000D01*
X305036Y239609D02*Y207464D01*
X301493Y204963D02*Y241183D01*
X285241Y232259D02*Y187487D01*
X287728Y185000D01*
X293819D01*
Y202717D02*X299246D01*
X301493Y204963D01*
G54D16*X378500Y298000D03*
Y288000D03*
Y278000D03*
X322500Y352500D03*
X312500D03*
X302500D03*
X292500D03*
X282500D03*
X272500D03*
X331000Y290457D03*
Y280457D03*
X341000D03*
Y290457D03*
X378500Y268000D03*
Y258000D03*
Y248000D03*
Y232000D03*
Y222000D03*
Y212000D03*
Y202000D03*
X355500Y222000D03*
G54D17*G36*
X274473Y322952D02*X269355D01*
Y317048D01*
X274473D01*
Y322952D01*
G37*
G36*
X281559D02*X276441D01*
Y317048D01*
X281559D01*
Y322952D01*
G37*
G36*
X270048Y299559D02*Y294441D01*
X275952D01*
Y299559D01*
X270048D01*
G37*
G36*
Y292473D02*Y287355D01*
X275952D01*
Y292473D01*
X270048D01*
G37*
G36*
X274473Y314952D02*X269355D01*
Y309048D01*
X274473D01*
Y314952D01*
G37*
G36*
X281559D02*X276441D01*
Y309048D01*
X281559D01*
Y314952D01*
G37*
G36*
X274473Y330952D02*X269355D01*
Y325048D01*
X274473D01*
Y330952D01*
G37*
G36*
X281559D02*X276441D01*
Y325048D01*
X281559D01*
Y330952D01*
G37*
G36*
X283721Y313877D02*Y312775D01*
X288221D01*
Y313877D01*
X283721D01*
G37*
G36*
Y311909D02*Y310807D01*
X288221D01*
Y311909D01*
X283721D01*
G37*
G36*
Y309940D02*Y308838D01*
X288221D01*
Y309940D01*
X283721D01*
G37*
G36*
Y307972D02*Y306870D01*
X288221D01*
Y307972D01*
X283721D01*
G37*
G36*
Y306003D02*Y304901D01*
X288221D01*
Y306003D01*
X283721D01*
G37*
G36*
Y304035D02*Y302933D01*
X288221D01*
Y304035D01*
X283721D01*
G37*
G36*
Y302066D02*Y300964D01*
X288221D01*
Y302066D01*
X283721D01*
G37*
G36*
X296161Y321279D02*X295059D01*
Y316779D01*
X296161D01*
Y321279D01*
G37*
G36*
X294192D02*X293090D01*
Y316779D01*
X294192D01*
Y321279D01*
G37*
G36*
X292224D02*X291122D01*
Y316779D01*
X292224D01*
Y321279D01*
G37*
G36*
X283721Y300098D02*Y298996D01*
X288221D01*
Y300098D01*
X283721D01*
G37*
G36*
Y298129D02*Y297027D01*
X288221D01*
Y298129D01*
X283721D01*
G37*
G36*
Y296161D02*Y295059D01*
X288221D01*
Y296161D01*
X283721D01*
G37*
G36*
Y294192D02*Y293090D01*
X288221D01*
Y294192D01*
X283721D01*
G37*
G36*
Y292224D02*Y291122D01*
X288221D01*
Y292224D01*
X283721D01*
G37*
G36*
X292225Y288221D02*X291123D01*
Y283721D01*
X292225D01*
Y288221D01*
G37*
G36*
X294193D02*X293091D01*
Y283721D01*
X294193D01*
Y288221D01*
G37*
G36*
X296162D02*X295060D01*
Y283721D01*
X296162D01*
Y288221D01*
G37*
G36*
X254548Y298559D02*Y293441D01*
X260452D01*
Y298559D01*
X254548D01*
G37*
G36*
Y291473D02*Y286355D01*
X260452D01*
Y291473D01*
X254548D01*
G37*
G36*
X246500Y294800D02*X238500D01*
Y272800D01*
X246500D01*
Y294800D01*
G37*
G36*
X269559Y268409D02*X264441D01*
Y262505D01*
X269559D01*
Y268409D01*
G37*
G36*
X262473D02*X257355D01*
Y262505D01*
X262473D01*
Y268409D01*
G37*
G36*
X254548Y311559D02*Y306441D01*
X260452D01*
Y311559D01*
X254548D01*
G37*
G36*
Y318645D02*Y313527D01*
X260452D01*
Y318645D01*
X254548D01*
G37*
G36*
X246500Y332200D02*X238500D01*
Y310200D01*
X246500D01*
Y332200D01*
G37*
G36*
X244516Y229952D02*X239398D01*
Y224048D01*
X244516D01*
Y229952D01*
G37*
G36*
X251602D02*X246484D01*
Y224048D01*
X251602D01*
Y229952D01*
G37*
G36*
X244516Y219952D02*X239398D01*
Y214048D01*
X244516D01*
Y219952D01*
G37*
G36*
X251602D02*X246484D01*
Y214048D01*
X251602D01*
Y219952D01*
G37*
G36*
X244516Y240952D02*X239398D01*
Y235048D01*
X244516D01*
Y240952D01*
G37*
G36*
X251602D02*X246484D01*
Y235048D01*
X251602D01*
Y240952D01*
G37*
G36*
X244516Y250952D02*X239398D01*
Y245048D01*
X244516D01*
Y250952D01*
G37*
G36*
X251602D02*X246484D01*
Y245048D01*
X251602D01*
Y250952D01*
G37*
G36*
X341063Y186969D02*Y183031D01*
X348937D01*
Y186969D01*
X341063D01*
G37*
G36*
Y192874D02*Y188937D01*
X348937D01*
Y192874D01*
X341063D01*
G37*
G36*
Y198780D02*Y194843D01*
X348937D01*
Y198780D01*
X341063D01*
G37*
G36*
Y204685D02*Y200748D01*
X348937D01*
Y204685D01*
X341063D01*
G37*
G36*
Y210591D02*Y206654D01*
X348937D01*
Y210591D01*
X341063D01*
G37*
G36*
Y216496D02*Y212559D01*
X348937D01*
Y216496D01*
X341063D01*
G37*
G36*
Y222402D02*Y218465D01*
X348937D01*
Y222402D01*
X341063D01*
G37*
G36*
Y228307D02*Y224370D01*
X348937D01*
Y228307D01*
X341063D01*
G37*
G36*
Y234213D02*Y230276D01*
X348937D01*
Y234213D01*
X341063D01*
G37*
G36*
Y240118D02*Y236181D01*
X348937D01*
Y240118D01*
X341063D01*
G37*
G36*
Y246024D02*Y242087D01*
X348937D01*
Y246024D01*
X341063D01*
G37*
G36*
Y251929D02*Y247992D01*
X348937D01*
Y251929D01*
X341063D01*
G37*
G36*
Y257835D02*Y253898D01*
X348937D01*
Y257835D01*
X341063D01*
G37*
G36*
X289882D02*Y253898D01*
X297756D01*
Y257835D01*
X289882D01*
G37*
G36*
Y251929D02*Y247992D01*
X297756D01*
Y251929D01*
X289882D01*
G37*
G36*
Y246024D02*Y242087D01*
X297756D01*
Y246024D01*
X289882D01*
G37*
G36*
Y240118D02*Y236181D01*
X297756D01*
Y240118D01*
X289882D01*
G37*
G36*
Y234213D02*Y230276D01*
X297756D01*
Y234213D01*
X289882D01*
G37*
G36*
Y228307D02*Y224370D01*
X297756D01*
Y228307D01*
X289882D01*
G37*
G36*
Y222402D02*Y218465D01*
X297756D01*
Y222402D01*
X289882D01*
G37*
G36*
Y216496D02*Y212559D01*
X297756D01*
Y216496D01*
X289882D01*
G37*
G36*
Y210591D02*Y206654D01*
X297756D01*
Y210591D01*
X289882D01*
G37*
G36*
Y204685D02*Y200748D01*
X297756D01*
Y204685D01*
X289882D01*
G37*
G36*
Y198780D02*Y194843D01*
X297756D01*
Y198780D01*
X289882D01*
G37*
G36*
Y192874D02*Y188937D01*
X297756D01*
Y192874D01*
X289882D01*
G37*
G36*
Y186969D02*Y183031D01*
X297756D01*
Y186969D01*
X289882D01*
G37*
G36*
X342047Y267677D02*X338110D01*
Y259803D01*
X342047D01*
Y267677D01*
G37*
G36*
X336142D02*X332205D01*
Y259803D01*
X336142D01*
Y267677D01*
G37*
G36*
X330236D02*X326299D01*
Y259803D01*
X330236D01*
Y267677D01*
G37*
G36*
X324331D02*X320394D01*
Y259803D01*
X324331D01*
Y267677D01*
G37*
G36*
X312520D02*X308583D01*
Y259803D01*
X312520D01*
Y267677D01*
G37*
G36*
X306614D02*X302677D01*
Y259803D01*
X306614D01*
Y267677D01*
G37*
G36*
X300709D02*X296772D01*
Y259803D01*
X300709D01*
Y267677D01*
G37*
G36*
X318425D02*X314488D01*
Y259803D01*
X318425D01*
Y267677D01*
G37*
G36*
X312973Y280452D02*X307855D01*
Y274548D01*
X312973D01*
Y280452D01*
G37*
G36*
X320059D02*X314941D01*
Y274548D01*
X320059D01*
Y280452D01*
G37*
G36*
X298130Y288221D02*X297028D01*
Y283721D01*
X298130D01*
Y288221D01*
G37*
G36*
X300099D02*X298997D01*
Y283721D01*
X300099D01*
Y288221D01*
G37*
G36*
X302067D02*X300965D01*
Y283721D01*
X302067D01*
Y288221D01*
G37*
G36*
X304036D02*X302934D01*
Y283721D01*
X304036D01*
Y288221D01*
G37*
G36*
X306004D02*X304902D01*
Y283721D01*
X306004D01*
Y288221D01*
G37*
G36*
X307973D02*X306871D01*
Y283721D01*
X307973D01*
Y288221D01*
G37*
G36*
X309941D02*X308839D01*
Y283721D01*
X309941D01*
Y288221D01*
G37*
G36*
X311910D02*X310808D01*
Y283721D01*
X311910D01*
Y288221D01*
G37*
G36*
X313878D02*X312776D01*
Y283721D01*
X313878D01*
Y288221D01*
G37*
G36*
X316779Y292225D02*Y291123D01*
X321279D01*
Y292225D01*
X316779D01*
G37*
G36*
Y294193D02*Y293091D01*
X321279D01*
Y294193D01*
X316779D01*
G37*
G36*
Y296162D02*Y295060D01*
X321279D01*
Y296162D01*
X316779D01*
G37*
G36*
Y298130D02*Y297028D01*
X321279D01*
Y298130D01*
X316779D01*
G37*
G36*
Y300099D02*Y298997D01*
X321279D01*
Y300099D01*
X316779D01*
G37*
G36*
Y302067D02*Y300965D01*
X321279D01*
Y302067D01*
X316779D01*
G37*
G36*
Y304036D02*Y302934D01*
X321279D01*
Y304036D01*
X316779D01*
G37*
G36*
Y306004D02*Y304902D01*
X321279D01*
Y306004D01*
X316779D01*
G37*
G36*
Y307973D02*Y306871D01*
X321279D01*
Y307973D01*
X316779D01*
G37*
G36*
Y309941D02*Y308839D01*
X321279D01*
Y309941D01*
X316779D01*
G37*
G36*
Y311910D02*Y310808D01*
X321279D01*
Y311910D01*
X316779D01*
G37*
G36*
Y313878D02*Y312776D01*
X321279D01*
Y313878D01*
X316779D01*
G37*
G36*
X342500Y316000D02*Y308000D01*
X352500D01*
Y316000D01*
X342500D01*
G37*
G36*
Y330000D02*Y322000D01*
X352500D01*
Y330000D01*
X342500D01*
G37*
G36*
X313877Y321279D02*X312775D01*
Y316779D01*
X313877D01*
Y321279D01*
G37*
G36*
X311909D02*X310807D01*
Y316779D01*
X311909D01*
Y321279D01*
G37*
G36*
X309940D02*X308838D01*
Y316779D01*
X309940D01*
Y321279D01*
G37*
G36*
X307972D02*X306870D01*
Y316779D01*
X307972D01*
Y321279D01*
G37*
G36*
X306003D02*X304901D01*
Y316779D01*
X306003D01*
Y321279D01*
G37*
G36*
X304035D02*X302933D01*
Y316779D01*
X304035D01*
Y321279D01*
G37*
G36*
X302066D02*X300964D01*
Y316779D01*
X302066D01*
Y321279D01*
G37*
G36*
X300098D02*X298996D01*
Y316779D01*
X300098D01*
Y321279D01*
G37*
G36*
X298129D02*X297027D01*
Y316779D01*
X298129D01*
Y321279D01*
G37*
G36*
X360450Y327850D02*Y324150D01*
X366550D01*
Y327850D01*
X360450D01*
G37*
G36*
Y321750D02*Y318050D01*
X366550D01*
Y321750D01*
X360450D01*
G37*
G36*
Y315650D02*Y311950D01*
X366550D01*
Y315650D01*
X360450D01*
G37*
G36*
X378750Y325950D02*X372650D01*
Y313850D01*
X378750D01*
Y325950D01*
G37*
G36*
X381500Y345000D02*X373500D01*
Y335000D01*
X381500D01*
Y345000D01*
G37*
G36*
X367500D02*X359500D01*
Y335000D01*
X367500D01*
Y345000D01*
G37*
G54D18*X291641Y301029D03*
G54D19*X257500Y302000D03*
G54D20*X265000Y320000D03*
G54D18*X293641Y325029D03*
G54D21*X247500Y175511D03*
G54D18*X310500Y245000D03*
X305036Y239609D03*
G54D20*X354000Y255866D03*
G54D18*X336139Y255357D03*
G54D20*X303000Y255457D03*
G54D18*X298000Y271457D03*
G54D20*X303414Y277500D03*
G54D18*X292500Y263000D03*
X291674Y269971D03*
X283500Y248000D03*
X270586D03*
G54D20*X253000Y265457D03*
X256957Y238000D03*
G54D18*X267000Y276457D03*
X348737Y275829D03*
G54D21*X366791Y370000D03*
G54D20*X337500Y326000D03*
X319586Y323000D03*
X308586Y312000D03*
G54D22*G54D23*G54D24*G54D23*G54D25*G54D22*G54D23*G54D24*G54D23*G54D24*G54D23*G54D24*G54D23*G54D24*G54D23*G54D25*G54D24*G54D26*M02*
