G04 start of page 12 for group -4063 idx -4063 *
G04 Title: (unknown), componentmask *
G04 Creator: pcb v4.1.3-ge2c36c29 *
G04 CreationDate: Sun Jul 18 18:04:05 2021 UTC *
G04 For: p *
G04 Format: Gerber/RS-274X *
G04 PCB-Dimensions (mil): 6000.00 5000.00 *
G04 PCB-Coordinate-Origin: lower left *
%MOIN*%
%FSLAX25Y25*%
%LNTOPMASK*%
%ADD109C,0.0001*%
%ADD108C,0.2657*%
%ADD107C,0.2619*%
%ADD106C,0.0729*%
G54D106*X378500Y298000D03*
Y288000D03*
Y278000D03*
X322500Y352500D03*
X312500D03*
X302500D03*
X292500D03*
X282500D03*
X272500D03*
X331000Y290457D03*
Y280457D03*
X341000D03*
Y290457D03*
X378500Y268000D03*
Y258000D03*
Y248000D03*
Y232000D03*
Y222000D03*
Y212000D03*
Y202000D03*
X355500Y222000D03*
G54D107*X247500Y370000D03*
G54D108*Y175511D03*
G54D107*X366791D03*
G54D108*Y370000D03*
G54D109*G36*
X274773Y323252D02*X269055D01*
Y316748D01*
X274773D01*
Y323252D01*
G37*
G36*
X281859D02*X276141D01*
Y316748D01*
X281859D01*
Y323252D01*
G37*
G36*
X269748Y299859D02*Y294141D01*
X276252D01*
Y299859D01*
X269748D01*
G37*
G36*
Y292773D02*Y287055D01*
X276252D01*
Y292773D01*
X269748D01*
G37*
G36*
X274773Y315252D02*X269055D01*
Y308748D01*
X274773D01*
Y315252D01*
G37*
G36*
X281859D02*X276141D01*
Y308748D01*
X281859D01*
Y315252D01*
G37*
G36*
X274773Y331252D02*X269055D01*
Y324748D01*
X274773D01*
Y331252D01*
G37*
G36*
X281859D02*X276141D01*
Y324748D01*
X281859D01*
Y331252D01*
G37*
G36*
X283571Y314027D02*Y312625D01*
X288371D01*
Y314027D01*
X283571D01*
G37*
G36*
Y312059D02*Y310657D01*
X288371D01*
Y312059D01*
X283571D01*
G37*
G36*
Y310090D02*Y308688D01*
X288371D01*
Y310090D01*
X283571D01*
G37*
G36*
Y308122D02*Y306720D01*
X288371D01*
Y308122D01*
X283571D01*
G37*
G36*
Y306153D02*Y304751D01*
X288371D01*
Y306153D01*
X283571D01*
G37*
G36*
Y304185D02*Y302783D01*
X288371D01*
Y304185D01*
X283571D01*
G37*
G36*
Y302216D02*Y300814D01*
X288371D01*
Y302216D01*
X283571D01*
G37*
G36*
X296311Y321429D02*X294909D01*
Y316629D01*
X296311D01*
Y321429D01*
G37*
G36*
X294342D02*X292940D01*
Y316629D01*
X294342D01*
Y321429D01*
G37*
G36*
X292374D02*X290972D01*
Y316629D01*
X292374D01*
Y321429D01*
G37*
G36*
X283571Y300248D02*Y298846D01*
X288371D01*
Y300248D01*
X283571D01*
G37*
G36*
Y298279D02*Y296877D01*
X288371D01*
Y298279D01*
X283571D01*
G37*
G36*
Y296311D02*Y294909D01*
X288371D01*
Y296311D01*
X283571D01*
G37*
G36*
Y294342D02*Y292940D01*
X288371D01*
Y294342D01*
X283571D01*
G37*
G36*
Y292374D02*Y290972D01*
X288371D01*
Y292374D01*
X283571D01*
G37*
G36*
X292375Y288371D02*X290973D01*
Y283571D01*
X292375D01*
Y288371D01*
G37*
G36*
X294343D02*X292941D01*
Y283571D01*
X294343D01*
Y288371D01*
G37*
G36*
X296312D02*X294910D01*
Y283571D01*
X296312D01*
Y288371D01*
G37*
G36*
X254248Y298859D02*Y293141D01*
X260752D01*
Y298859D01*
X254248D01*
G37*
G36*
Y291773D02*Y286055D01*
X260752D01*
Y291773D01*
X254248D01*
G37*
G36*
X247500Y295800D02*X237500D01*
Y271800D01*
X247500D01*
Y295800D01*
G37*
G36*
X269859Y268709D02*X264141D01*
Y262205D01*
X269859D01*
Y268709D01*
G37*
G36*
X262773D02*X257055D01*
Y262205D01*
X262773D01*
Y268709D01*
G37*
G36*
X254248Y311859D02*Y306141D01*
X260752D01*
Y311859D01*
X254248D01*
G37*
G36*
Y318945D02*Y313227D01*
X260752D01*
Y318945D01*
X254248D01*
G37*
G36*
X247500Y333200D02*X237500D01*
Y309200D01*
X247500D01*
Y333200D01*
G37*
G36*
X244816Y230252D02*X239098D01*
Y223748D01*
X244816D01*
Y230252D01*
G37*
G36*
X251902D02*X246184D01*
Y223748D01*
X251902D01*
Y230252D01*
G37*
G36*
X244816Y220252D02*X239098D01*
Y213748D01*
X244816D01*
Y220252D01*
G37*
G36*
X251902D02*X246184D01*
Y213748D01*
X251902D01*
Y220252D01*
G37*
G36*
X244816Y241252D02*X239098D01*
Y234748D01*
X244816D01*
Y241252D01*
G37*
G36*
X251902D02*X246184D01*
Y234748D01*
X251902D01*
Y241252D01*
G37*
G36*
X244816Y251252D02*X239098D01*
Y244748D01*
X244816D01*
Y251252D01*
G37*
G36*
X251902D02*X246184D01*
Y244748D01*
X251902D01*
Y251252D01*
G37*
G36*
X340063Y187969D02*Y182031D01*
X349937D01*
Y187969D01*
X340063D01*
G37*
G36*
Y193874D02*Y187937D01*
X349937D01*
Y193874D01*
X340063D01*
G37*
G36*
Y199780D02*Y193843D01*
X349937D01*
Y199780D01*
X340063D01*
G37*
G36*
Y205685D02*Y199748D01*
X349937D01*
Y205685D01*
X340063D01*
G37*
G36*
Y211591D02*Y205654D01*
X349937D01*
Y211591D01*
X340063D01*
G37*
G36*
Y217496D02*Y211559D01*
X349937D01*
Y217496D01*
X340063D01*
G37*
G36*
Y223402D02*Y217465D01*
X349937D01*
Y223402D01*
X340063D01*
G37*
G36*
Y229307D02*Y223370D01*
X349937D01*
Y229307D01*
X340063D01*
G37*
G36*
Y235213D02*Y229276D01*
X349937D01*
Y235213D01*
X340063D01*
G37*
G36*
Y241118D02*Y235181D01*
X349937D01*
Y241118D01*
X340063D01*
G37*
G36*
Y247024D02*Y241087D01*
X349937D01*
Y247024D01*
X340063D01*
G37*
G36*
Y252929D02*Y246992D01*
X349937D01*
Y252929D01*
X340063D01*
G37*
G36*
Y258835D02*Y252898D01*
X349937D01*
Y258835D01*
X340063D01*
G37*
G36*
X288882D02*Y252898D01*
X298756D01*
Y258835D01*
X288882D01*
G37*
G36*
Y252929D02*Y246992D01*
X298756D01*
Y252929D01*
X288882D01*
G37*
G36*
Y247024D02*Y241087D01*
X298756D01*
Y247024D01*
X288882D01*
G37*
G36*
Y241118D02*Y235181D01*
X298756D01*
Y241118D01*
X288882D01*
G37*
G36*
Y235213D02*Y229276D01*
X298756D01*
Y235213D01*
X288882D01*
G37*
G36*
Y229307D02*Y223370D01*
X298756D01*
Y229307D01*
X288882D01*
G37*
G36*
Y223402D02*Y217465D01*
X298756D01*
Y223402D01*
X288882D01*
G37*
G36*
Y217496D02*Y211559D01*
X298756D01*
Y217496D01*
X288882D01*
G37*
G36*
Y211591D02*Y205654D01*
X298756D01*
Y211591D01*
X288882D01*
G37*
G36*
Y205685D02*Y199748D01*
X298756D01*
Y205685D01*
X288882D01*
G37*
G36*
Y199780D02*Y193843D01*
X298756D01*
Y199780D01*
X288882D01*
G37*
G36*
Y193874D02*Y187937D01*
X298756D01*
Y193874D01*
X288882D01*
G37*
G36*
Y187969D02*Y182031D01*
X298756D01*
Y187969D01*
X288882D01*
G37*
G36*
X343047Y268677D02*X337110D01*
Y258803D01*
X343047D01*
Y268677D01*
G37*
G36*
X337142D02*X331205D01*
Y258803D01*
X337142D01*
Y268677D01*
G37*
G36*
X331236D02*X325299D01*
Y258803D01*
X331236D01*
Y268677D01*
G37*
G36*
X325331D02*X319394D01*
Y258803D01*
X325331D01*
Y268677D01*
G37*
G36*
X313520D02*X307583D01*
Y258803D01*
X313520D01*
Y268677D01*
G37*
G36*
X307614D02*X301677D01*
Y258803D01*
X307614D01*
Y268677D01*
G37*
G36*
X301709D02*X295772D01*
Y258803D01*
X301709D01*
Y268677D01*
G37*
G36*
X319425D02*X313488D01*
Y258803D01*
X319425D01*
Y268677D01*
G37*
G36*
X313273Y280752D02*X307555D01*
Y274248D01*
X313273D01*
Y280752D01*
G37*
G36*
X320359D02*X314641D01*
Y274248D01*
X320359D01*
Y280752D01*
G37*
G36*
X298280Y288371D02*X296878D01*
Y283571D01*
X298280D01*
Y288371D01*
G37*
G36*
X300249D02*X298847D01*
Y283571D01*
X300249D01*
Y288371D01*
G37*
G36*
X302217D02*X300815D01*
Y283571D01*
X302217D01*
Y288371D01*
G37*
G36*
X304186D02*X302784D01*
Y283571D01*
X304186D01*
Y288371D01*
G37*
G36*
X306154D02*X304752D01*
Y283571D01*
X306154D01*
Y288371D01*
G37*
G36*
X308123D02*X306721D01*
Y283571D01*
X308123D01*
Y288371D01*
G37*
G36*
X310091D02*X308689D01*
Y283571D01*
X310091D01*
Y288371D01*
G37*
G36*
X312060D02*X310658D01*
Y283571D01*
X312060D01*
Y288371D01*
G37*
G36*
X314028D02*X312626D01*
Y283571D01*
X314028D01*
Y288371D01*
G37*
G36*
X316629Y292375D02*Y290973D01*
X321429D01*
Y292375D01*
X316629D01*
G37*
G36*
Y294343D02*Y292941D01*
X321429D01*
Y294343D01*
X316629D01*
G37*
G36*
Y296312D02*Y294910D01*
X321429D01*
Y296312D01*
X316629D01*
G37*
G36*
Y298280D02*Y296878D01*
X321429D01*
Y298280D01*
X316629D01*
G37*
G36*
Y300249D02*Y298847D01*
X321429D01*
Y300249D01*
X316629D01*
G37*
G36*
Y302217D02*Y300815D01*
X321429D01*
Y302217D01*
X316629D01*
G37*
G36*
Y304186D02*Y302784D01*
X321429D01*
Y304186D01*
X316629D01*
G37*
G36*
Y306154D02*Y304752D01*
X321429D01*
Y306154D01*
X316629D01*
G37*
G36*
Y308123D02*Y306721D01*
X321429D01*
Y308123D01*
X316629D01*
G37*
G36*
Y310091D02*Y308689D01*
X321429D01*
Y310091D01*
X316629D01*
G37*
G36*
Y312060D02*Y310658D01*
X321429D01*
Y312060D01*
X316629D01*
G37*
G36*
Y314028D02*Y312626D01*
X321429D01*
Y314028D01*
X316629D01*
G37*
G36*
X342200Y316300D02*Y307700D01*
X352800D01*
Y316300D01*
X342200D01*
G37*
G36*
Y330300D02*Y321700D01*
X352800D01*
Y330300D01*
X342200D01*
G37*
G36*
X314027Y321429D02*X312625D01*
Y316629D01*
X314027D01*
Y321429D01*
G37*
G36*
X312059D02*X310657D01*
Y316629D01*
X312059D01*
Y321429D01*
G37*
G36*
X310090D02*X308688D01*
Y316629D01*
X310090D01*
Y321429D01*
G37*
G36*
X308122D02*X306720D01*
Y316629D01*
X308122D01*
Y321429D01*
G37*
G36*
X306153D02*X304751D01*
Y316629D01*
X306153D01*
Y321429D01*
G37*
G36*
X304185D02*X302783D01*
Y316629D01*
X304185D01*
Y321429D01*
G37*
G36*
X302216D02*X300814D01*
Y316629D01*
X302216D01*
Y321429D01*
G37*
G36*
X300248D02*X298846D01*
Y316629D01*
X300248D01*
Y321429D01*
G37*
G36*
X298279D02*X296877D01*
Y316629D01*
X298279D01*
Y321429D01*
G37*
G36*
X360150Y328150D02*Y323850D01*
X366850D01*
Y328150D01*
X360150D01*
G37*
G36*
Y322050D02*Y317750D01*
X366850D01*
Y322050D01*
X360150D01*
G37*
G36*
Y315950D02*Y311650D01*
X366850D01*
Y315950D01*
X360150D01*
G37*
G36*
X379050Y326250D02*X372350D01*
Y313550D01*
X379050D01*
Y326250D01*
G37*
G36*
X381800Y345300D02*X373200D01*
Y334700D01*
X381800D01*
Y345300D01*
G37*
G36*
X367800D02*X359200D01*
Y334700D01*
X367800D01*
Y345300D01*
G37*
M02*
