M48
INCH
T104C0.122
T103C0.035
T102C0.020
T101C0.039
%
T102
X025750Y030200
X026700Y027646
X027059Y024800
X028350Y024800
X029164Y030103
X029167Y026997
X029250Y026300
X029364Y032503
X029800Y027146
X030504Y023961
X031050Y024500
X033614Y025536
X034874Y027583
T103
X025300Y026546
X025696Y023800
X026500Y032000
X030300Y025546
X030341Y027750
X030859Y031200
X031959Y032300
X033750Y032600
X035400Y025587
T101
X027250Y035250
X028250Y035250
X029250Y035250
X030250Y035250
X031250Y035250
X032250Y035250
X033100Y029046
X033100Y028046
X034100Y029046
X034100Y028046
X035550Y022200
X037850Y029800
X037850Y028800
X037850Y027800
X037850Y026800
X037850Y025800
X037850Y024800
X037850Y023200
X037850Y022200
X037850Y021200
X037850Y020200
T104
X024750Y017551
X036679Y037000
M30
