G04 start of page 3 for group 1 idx 1 *
G04 Title: (unknown), solder *
G04 Creator: pcb v4.1.3-ge2c36c29 *
G04 CreationDate: Sun Jul 18 18:04:05 2021 UTC *
G04 For: p *
G04 Format: Gerber/RS-274X *
G04 PCB-Dimensions (mil): 6000.00 5000.00 *
G04 PCB-Coordinate-Origin: lower left *
%MOIN*%
%FSLAX25Y25*%
%LNBOTTOM*%
%ADD39C,0.0394*%
%ADD38C,0.1220*%
%ADD37C,0.0354*%
%ADD36C,0.0197*%
%ADD35C,0.2638*%
%ADD34C,0.2559*%
%ADD33C,0.0600*%
%ADD32C,0.0512*%
%ADD31C,0.0433*%
%ADD30C,0.0669*%
%ADD29C,0.0100*%
%ADD28C,0.0400*%
%ADD27C,0.0001*%
G54D27*G36*
X382417Y390440D02*X387059D01*
Y189440D01*
X382417D01*
Y199123D01*
X382433Y199143D01*
X382832Y199793D01*
X383123Y200498D01*
X383302Y201240D01*
X383346Y202000D01*
X383302Y202760D01*
X383123Y203502D01*
X382832Y204207D01*
X382433Y204857D01*
X382417Y204877D01*
Y209123D01*
X382433Y209143D01*
X382832Y209793D01*
X383123Y210498D01*
X383302Y211240D01*
X383346Y212000D01*
X383302Y212760D01*
X383123Y213502D01*
X382832Y214207D01*
X382433Y214857D01*
X382417Y214877D01*
Y219602D01*
X382511Y219630D01*
X382618Y219681D01*
X382715Y219748D01*
X382801Y219829D01*
X382873Y219923D01*
X382927Y220027D01*
X383096Y220446D01*
X383221Y220880D01*
X383304Y221324D01*
X383346Y221774D01*
Y222226D01*
X383304Y222676D01*
X383221Y223120D01*
X383096Y223554D01*
X382932Y223975D01*
X382876Y224079D01*
X382803Y224174D01*
X382717Y224255D01*
X382619Y224322D01*
X382512Y224373D01*
X382417Y224402D01*
Y229123D01*
X382433Y229143D01*
X382832Y229793D01*
X383123Y230498D01*
X383302Y231240D01*
X383346Y232000D01*
X383302Y232760D01*
X383123Y233502D01*
X382832Y234207D01*
X382433Y234857D01*
X382417Y234877D01*
Y245123D01*
X382433Y245143D01*
X382832Y245793D01*
X383123Y246498D01*
X383302Y247240D01*
X383346Y248000D01*
X383302Y248760D01*
X383123Y249502D01*
X382832Y250207D01*
X382433Y250857D01*
X382417Y250877D01*
Y255123D01*
X382433Y255143D01*
X382832Y255793D01*
X383123Y256498D01*
X383302Y257240D01*
X383346Y258000D01*
X383302Y258760D01*
X383123Y259502D01*
X382832Y260207D01*
X382433Y260857D01*
X382417Y260877D01*
Y265123D01*
X382433Y265143D01*
X382832Y265793D01*
X383123Y266498D01*
X383302Y267240D01*
X383346Y268000D01*
X383302Y268760D01*
X383123Y269502D01*
X382832Y270207D01*
X382433Y270857D01*
X382417Y270877D01*
Y275602D01*
X382511Y275630D01*
X382618Y275681D01*
X382715Y275748D01*
X382801Y275829D01*
X382873Y275923D01*
X382927Y276027D01*
X383096Y276446D01*
X383221Y276880D01*
X383304Y277324D01*
X383346Y277774D01*
Y278226D01*
X383304Y278676D01*
X383221Y279120D01*
X383096Y279554D01*
X382932Y279975D01*
X382876Y280079D01*
X382803Y280174D01*
X382717Y280255D01*
X382619Y280322D01*
X382512Y280373D01*
X382417Y280402D01*
Y285123D01*
X382433Y285143D01*
X382832Y285793D01*
X383123Y286498D01*
X383302Y287240D01*
X383346Y288000D01*
X383302Y288760D01*
X383123Y289502D01*
X382832Y290207D01*
X382433Y290857D01*
X382417Y290877D01*
Y295123D01*
X382433Y295143D01*
X382832Y295793D01*
X383123Y296498D01*
X383302Y297240D01*
X383346Y298000D01*
X383302Y298760D01*
X383123Y299502D01*
X382832Y300207D01*
X382433Y300857D01*
X382417Y300877D01*
Y390440D01*
G37*
G36*
Y290877D02*X381938Y291438D01*
X381357Y291933D01*
X380707Y292332D01*
X380002Y292623D01*
X379260Y292802D01*
X378500Y292861D01*
X378493Y292861D01*
Y293139D01*
X378500Y293139D01*
X379260Y293198D01*
X380002Y293377D01*
X380707Y293668D01*
X381357Y294067D01*
X381938Y294562D01*
X382417Y295123D01*
Y290877D01*
G37*
G36*
Y270877D02*X381938Y271438D01*
X381357Y271933D01*
X380707Y272332D01*
X380002Y272623D01*
X379260Y272802D01*
X378500Y272861D01*
X378493Y272861D01*
Y273154D01*
X378726D01*
X379176Y273196D01*
X379620Y273279D01*
X380054Y273404D01*
X380475Y273568D01*
X380579Y273624D01*
X380674Y273697D01*
X380755Y273783D01*
X380822Y273881D01*
X380873Y273988D01*
X380907Y274101D01*
X380922Y274219D01*
X380919Y274338D01*
X380898Y274454D01*
X380858Y274566D01*
X380801Y274670D01*
X380729Y274764D01*
X380643Y274846D01*
X380545Y274913D01*
X380438Y274964D01*
X380324Y274998D01*
X380207Y275013D01*
X380088Y275010D01*
X379972Y274988D01*
X379861Y274947D01*
X379572Y274830D01*
X379272Y274744D01*
X378966Y274686D01*
X378656Y274657D01*
X378493D01*
Y281343D01*
X378656D01*
X378966Y281314D01*
X379272Y281256D01*
X379572Y281170D01*
X379862Y281057D01*
X379973Y281015D01*
X380089Y280994D01*
X380207Y280990D01*
X380324Y281006D01*
X380437Y281039D01*
X380543Y281090D01*
X380641Y281157D01*
X380726Y281238D01*
X380798Y281332D01*
X380855Y281435D01*
X380894Y281547D01*
X380916Y281663D01*
X380919Y281781D01*
X380903Y281898D01*
X380870Y282011D01*
X380819Y282118D01*
X380752Y282215D01*
X380671Y282301D01*
X380577Y282373D01*
X380473Y282427D01*
X380054Y282596D01*
X379620Y282721D01*
X379176Y282804D01*
X378726Y282846D01*
X378493D01*
Y283139D01*
X378500Y283139D01*
X379260Y283198D01*
X380002Y283377D01*
X380707Y283668D01*
X381357Y284067D01*
X381938Y284562D01*
X382417Y285123D01*
Y280402D01*
X382399Y280407D01*
X382281Y280422D01*
X382162Y280419D01*
X382046Y280398D01*
X381934Y280358D01*
X381830Y280301D01*
X381736Y280229D01*
X381654Y280143D01*
X381587Y280045D01*
X381536Y279938D01*
X381502Y279824D01*
X381487Y279707D01*
X381490Y279588D01*
X381512Y279472D01*
X381553Y279361D01*
X381670Y279072D01*
X381756Y278772D01*
X381814Y278466D01*
X381843Y278156D01*
Y277844D01*
X381814Y277534D01*
X381756Y277228D01*
X381670Y276928D01*
X381557Y276638D01*
X381515Y276527D01*
X381494Y276411D01*
X381490Y276293D01*
X381506Y276176D01*
X381539Y276063D01*
X381590Y275957D01*
X381657Y275859D01*
X381738Y275774D01*
X381832Y275702D01*
X381935Y275645D01*
X382047Y275606D01*
X382163Y275584D01*
X382281Y275581D01*
X382398Y275597D01*
X382417Y275602D01*
Y270877D01*
G37*
G36*
Y260877D02*X381938Y261438D01*
X381357Y261933D01*
X380707Y262332D01*
X380002Y262623D01*
X379260Y262802D01*
X378500Y262861D01*
X378493Y262861D01*
Y263139D01*
X378500Y263139D01*
X379260Y263198D01*
X380002Y263377D01*
X380707Y263668D01*
X381357Y264067D01*
X381938Y264562D01*
X382417Y265123D01*
Y260877D01*
G37*
G36*
Y250877D02*X381938Y251438D01*
X381357Y251933D01*
X380707Y252332D01*
X380002Y252623D01*
X379260Y252802D01*
X378500Y252861D01*
X378493Y252861D01*
Y253139D01*
X378500Y253139D01*
X379260Y253198D01*
X380002Y253377D01*
X380707Y253668D01*
X381357Y254067D01*
X381938Y254562D01*
X382417Y255123D01*
Y250877D01*
G37*
G36*
Y234877D02*X381938Y235438D01*
X381357Y235933D01*
X380707Y236332D01*
X380002Y236623D01*
X379260Y236802D01*
X378500Y236861D01*
X378493Y236861D01*
Y243139D01*
X378500Y243139D01*
X379260Y243198D01*
X380002Y243377D01*
X380707Y243668D01*
X381357Y244067D01*
X381938Y244562D01*
X382417Y245123D01*
Y234877D01*
G37*
G36*
Y214877D02*X381938Y215438D01*
X381357Y215933D01*
X380707Y216332D01*
X380002Y216623D01*
X379260Y216802D01*
X378500Y216861D01*
X378493Y216861D01*
Y217154D01*
X378726D01*
X379176Y217196D01*
X379620Y217279D01*
X380054Y217404D01*
X380475Y217568D01*
X380579Y217624D01*
X380674Y217697D01*
X380755Y217783D01*
X380822Y217881D01*
X380873Y217988D01*
X380907Y218101D01*
X380922Y218219D01*
X380919Y218338D01*
X380898Y218454D01*
X380858Y218566D01*
X380801Y218670D01*
X380729Y218764D01*
X380643Y218846D01*
X380545Y218913D01*
X380438Y218964D01*
X380324Y218998D01*
X380207Y219013D01*
X380088Y219010D01*
X379972Y218988D01*
X379861Y218947D01*
X379572Y218830D01*
X379272Y218744D01*
X378966Y218686D01*
X378656Y218657D01*
X378493D01*
Y225343D01*
X378656D01*
X378966Y225314D01*
X379272Y225256D01*
X379572Y225170D01*
X379862Y225057D01*
X379973Y225015D01*
X380089Y224994D01*
X380207Y224990D01*
X380324Y225006D01*
X380437Y225039D01*
X380543Y225090D01*
X380641Y225157D01*
X380726Y225238D01*
X380798Y225332D01*
X380855Y225435D01*
X380894Y225547D01*
X380916Y225663D01*
X380919Y225781D01*
X380903Y225898D01*
X380870Y226011D01*
X380819Y226118D01*
X380752Y226215D01*
X380671Y226301D01*
X380577Y226373D01*
X380473Y226427D01*
X380054Y226596D01*
X379620Y226721D01*
X379176Y226804D01*
X378726Y226846D01*
X378493D01*
Y227139D01*
X378500Y227139D01*
X379260Y227198D01*
X380002Y227377D01*
X380707Y227668D01*
X381357Y228067D01*
X381938Y228562D01*
X382417Y229123D01*
Y224402D01*
X382399Y224407D01*
X382281Y224422D01*
X382162Y224419D01*
X382046Y224398D01*
X381934Y224358D01*
X381830Y224301D01*
X381736Y224229D01*
X381654Y224143D01*
X381587Y224045D01*
X381536Y223938D01*
X381502Y223824D01*
X381487Y223707D01*
X381490Y223588D01*
X381512Y223472D01*
X381553Y223361D01*
X381670Y223072D01*
X381756Y222772D01*
X381814Y222466D01*
X381843Y222156D01*
Y221844D01*
X381814Y221534D01*
X381756Y221228D01*
X381670Y220928D01*
X381557Y220638D01*
X381515Y220527D01*
X381494Y220411D01*
X381490Y220293D01*
X381506Y220176D01*
X381539Y220063D01*
X381590Y219957D01*
X381657Y219859D01*
X381738Y219774D01*
X381832Y219702D01*
X381935Y219645D01*
X382047Y219606D01*
X382163Y219584D01*
X382281Y219581D01*
X382398Y219597D01*
X382417Y219602D01*
Y214877D01*
G37*
G36*
Y204877D02*X381938Y205438D01*
X381357Y205933D01*
X380707Y206332D01*
X380002Y206623D01*
X379260Y206802D01*
X378500Y206861D01*
X378493Y206861D01*
Y207139D01*
X378500Y207139D01*
X379260Y207198D01*
X380002Y207377D01*
X380707Y207668D01*
X381357Y208067D01*
X381938Y208562D01*
X382417Y209123D01*
Y204877D01*
G37*
G36*
Y189440D02*X378493D01*
Y197139D01*
X378500Y197139D01*
X379260Y197198D01*
X380002Y197377D01*
X380707Y197668D01*
X381357Y198067D01*
X381938Y198562D01*
X382417Y199123D01*
Y189440D01*
G37*
G36*
X378493Y390440D02*X382417D01*
Y300877D01*
X381938Y301438D01*
X381357Y301933D01*
X380707Y302332D01*
X380002Y302623D01*
X379260Y302802D01*
X378500Y302861D01*
X378493Y302861D01*
Y362693D01*
X379121Y363718D01*
X379951Y365724D01*
X380458Y367835D01*
X380586Y370000D01*
X380458Y372165D01*
X379951Y374276D01*
X379121Y376282D01*
X378493Y377307D01*
Y390440D01*
G37*
G36*
X374583Y209123D02*X375062Y208562D01*
X375643Y208067D01*
X376293Y207668D01*
X376998Y207377D01*
X377740Y207198D01*
X378493Y207139D01*
Y206861D01*
X377740Y206802D01*
X376998Y206623D01*
X376293Y206332D01*
X375643Y205933D01*
X375062Y205438D01*
X374583Y204877D01*
Y209123D01*
G37*
G36*
Y229123D02*X375062Y228562D01*
X375643Y228067D01*
X376293Y227668D01*
X376998Y227377D01*
X377740Y227198D01*
X378493Y227139D01*
Y226846D01*
X378274D01*
X377824Y226804D01*
X377380Y226721D01*
X376946Y226596D01*
X376525Y226432D01*
X376421Y226376D01*
X376326Y226303D01*
X376245Y226217D01*
X376178Y226119D01*
X376127Y226012D01*
X376093Y225899D01*
X376078Y225781D01*
X376081Y225662D01*
X376102Y225546D01*
X376142Y225434D01*
X376199Y225330D01*
X376271Y225236D01*
X376357Y225154D01*
X376455Y225087D01*
X376562Y225036D01*
X376676Y225002D01*
X376793Y224987D01*
X376912Y224990D01*
X377028Y225012D01*
X377139Y225053D01*
X377428Y225170D01*
X377728Y225256D01*
X378034Y225314D01*
X378344Y225343D01*
X378493D01*
Y218657D01*
X378344D01*
X378034Y218686D01*
X377728Y218744D01*
X377428Y218830D01*
X377138Y218943D01*
X377027Y218985D01*
X376911Y219006D01*
X376793Y219010D01*
X376676Y218994D01*
X376563Y218961D01*
X376457Y218910D01*
X376359Y218843D01*
X376274Y218762D01*
X376202Y218668D01*
X376145Y218565D01*
X376106Y218453D01*
X376084Y218337D01*
X376081Y218219D01*
X376097Y218102D01*
X376130Y217989D01*
X376181Y217882D01*
X376248Y217785D01*
X376329Y217699D01*
X376423Y217627D01*
X376527Y217573D01*
X376946Y217404D01*
X377380Y217279D01*
X377824Y217196D01*
X378274Y217154D01*
X378493D01*
Y216861D01*
X377740Y216802D01*
X376998Y216623D01*
X376293Y216332D01*
X375643Y215933D01*
X375062Y215438D01*
X374583Y214877D01*
Y219598D01*
X374601Y219593D01*
X374719Y219578D01*
X374838Y219581D01*
X374954Y219602D01*
X375066Y219642D01*
X375170Y219699D01*
X375264Y219771D01*
X375346Y219857D01*
X375413Y219955D01*
X375464Y220062D01*
X375498Y220176D01*
X375513Y220293D01*
X375510Y220412D01*
X375488Y220528D01*
X375447Y220639D01*
X375330Y220928D01*
X375244Y221228D01*
X375186Y221534D01*
X375157Y221844D01*
Y222156D01*
X375186Y222466D01*
X375244Y222772D01*
X375330Y223072D01*
X375443Y223362D01*
X375485Y223473D01*
X375506Y223589D01*
X375510Y223707D01*
X375494Y223824D01*
X375461Y223937D01*
X375410Y224043D01*
X375343Y224141D01*
X375262Y224226D01*
X375168Y224298D01*
X375065Y224355D01*
X374953Y224394D01*
X374837Y224416D01*
X374719Y224419D01*
X374602Y224403D01*
X374583Y224398D01*
Y229123D01*
G37*
G36*
Y245123D02*X375062Y244562D01*
X375643Y244067D01*
X376293Y243668D01*
X376998Y243377D01*
X377740Y243198D01*
X378493Y243139D01*
Y236861D01*
X377740Y236802D01*
X376998Y236623D01*
X376293Y236332D01*
X375643Y235933D01*
X375062Y235438D01*
X374583Y234877D01*
Y245123D01*
G37*
G36*
Y255123D02*X375062Y254562D01*
X375643Y254067D01*
X376293Y253668D01*
X376998Y253377D01*
X377740Y253198D01*
X378493Y253139D01*
Y252861D01*
X377740Y252802D01*
X376998Y252623D01*
X376293Y252332D01*
X375643Y251933D01*
X375062Y251438D01*
X374583Y250877D01*
Y255123D01*
G37*
G36*
Y265123D02*X375062Y264562D01*
X375643Y264067D01*
X376293Y263668D01*
X376998Y263377D01*
X377740Y263198D01*
X378493Y263139D01*
Y262861D01*
X377740Y262802D01*
X376998Y262623D01*
X376293Y262332D01*
X375643Y261933D01*
X375062Y261438D01*
X374583Y260877D01*
Y265123D01*
G37*
G36*
Y285123D02*X375062Y284562D01*
X375643Y284067D01*
X376293Y283668D01*
X376998Y283377D01*
X377740Y283198D01*
X378493Y283139D01*
Y282846D01*
X378274D01*
X377824Y282804D01*
X377380Y282721D01*
X376946Y282596D01*
X376525Y282432D01*
X376421Y282376D01*
X376326Y282303D01*
X376245Y282217D01*
X376178Y282119D01*
X376127Y282012D01*
X376093Y281899D01*
X376078Y281781D01*
X376081Y281662D01*
X376102Y281546D01*
X376142Y281434D01*
X376199Y281330D01*
X376271Y281236D01*
X376357Y281154D01*
X376455Y281087D01*
X376562Y281036D01*
X376676Y281002D01*
X376793Y280987D01*
X376912Y280990D01*
X377028Y281012D01*
X377139Y281053D01*
X377428Y281170D01*
X377728Y281256D01*
X378034Y281314D01*
X378344Y281343D01*
X378493D01*
Y274657D01*
X378344D01*
X378034Y274686D01*
X377728Y274744D01*
X377428Y274830D01*
X377138Y274943D01*
X377027Y274985D01*
X376911Y275006D01*
X376793Y275010D01*
X376676Y274994D01*
X376563Y274961D01*
X376457Y274910D01*
X376359Y274843D01*
X376274Y274762D01*
X376202Y274668D01*
X376145Y274565D01*
X376106Y274453D01*
X376084Y274337D01*
X376081Y274219D01*
X376097Y274102D01*
X376130Y273989D01*
X376181Y273882D01*
X376248Y273785D01*
X376329Y273699D01*
X376423Y273627D01*
X376527Y273573D01*
X376946Y273404D01*
X377380Y273279D01*
X377824Y273196D01*
X378274Y273154D01*
X378493D01*
Y272861D01*
X377740Y272802D01*
X376998Y272623D01*
X376293Y272332D01*
X375643Y271933D01*
X375062Y271438D01*
X374583Y270877D01*
Y275598D01*
X374601Y275593D01*
X374719Y275578D01*
X374838Y275581D01*
X374954Y275602D01*
X375066Y275642D01*
X375170Y275699D01*
X375264Y275771D01*
X375346Y275857D01*
X375413Y275955D01*
X375464Y276062D01*
X375498Y276176D01*
X375513Y276293D01*
X375510Y276412D01*
X375488Y276528D01*
X375447Y276639D01*
X375330Y276928D01*
X375244Y277228D01*
X375186Y277534D01*
X375157Y277844D01*
Y278156D01*
X375186Y278466D01*
X375244Y278772D01*
X375330Y279072D01*
X375443Y279362D01*
X375485Y279473D01*
X375506Y279589D01*
X375510Y279707D01*
X375494Y279824D01*
X375461Y279937D01*
X375410Y280043D01*
X375343Y280141D01*
X375262Y280226D01*
X375168Y280298D01*
X375065Y280355D01*
X374953Y280394D01*
X374837Y280416D01*
X374719Y280419D01*
X374602Y280403D01*
X374583Y280398D01*
Y285123D01*
G37*
G36*
Y295123D02*X375062Y294562D01*
X375643Y294067D01*
X376293Y293668D01*
X376998Y293377D01*
X377740Y293198D01*
X378493Y293139D01*
Y292861D01*
X377740Y292802D01*
X376998Y292623D01*
X376293Y292332D01*
X375643Y291933D01*
X375062Y291438D01*
X374583Y290877D01*
Y295123D01*
G37*
G36*
Y358596D02*X374925Y358805D01*
X376576Y360215D01*
X377986Y361866D01*
X378493Y362693D01*
Y302861D01*
X377740Y302802D01*
X376998Y302623D01*
X376293Y302332D01*
X375643Y301933D01*
X375062Y301438D01*
X374583Y300877D01*
Y358596D01*
G37*
G36*
X378493Y189440D02*X374583D01*
Y199123D01*
X375062Y198562D01*
X375643Y198067D01*
X376293Y197668D01*
X376998Y197377D01*
X377740Y197198D01*
X378493Y197139D01*
Y189440D01*
G37*
G36*
X374583D02*X369554D01*
X369017Y189569D01*
X366791Y189744D01*
X364564Y189569D01*
X364027Y189440D01*
X359417D01*
Y219602D01*
X359511Y219630D01*
X359618Y219681D01*
X359715Y219748D01*
X359801Y219829D01*
X359873Y219923D01*
X359927Y220027D01*
X360096Y220446D01*
X360221Y220880D01*
X360304Y221324D01*
X360346Y221774D01*
Y222226D01*
X360304Y222676D01*
X360221Y223120D01*
X360096Y223554D01*
X359932Y223975D01*
X359876Y224079D01*
X359803Y224174D01*
X359717Y224255D01*
X359619Y224322D01*
X359512Y224373D01*
X359417Y224402D01*
Y358340D01*
X360509Y357670D01*
X362515Y356839D01*
X364626Y356333D01*
X366791Y356162D01*
X368956Y356333D01*
X371067Y356839D01*
X373073Y357670D01*
X374583Y358596D01*
Y300877D01*
X374567Y300857D01*
X374168Y300207D01*
X373877Y299502D01*
X373698Y298760D01*
X373639Y298000D01*
X373698Y297240D01*
X373877Y296498D01*
X374168Y295793D01*
X374567Y295143D01*
X374583Y295123D01*
Y290877D01*
X374567Y290857D01*
X374168Y290207D01*
X373877Y289502D01*
X373698Y288760D01*
X373639Y288000D01*
X373698Y287240D01*
X373877Y286498D01*
X374168Y285793D01*
X374567Y285143D01*
X374583Y285123D01*
Y280398D01*
X374489Y280370D01*
X374382Y280319D01*
X374285Y280252D01*
X374199Y280171D01*
X374127Y280077D01*
X374073Y279973D01*
X373904Y279554D01*
X373779Y279120D01*
X373696Y278676D01*
X373654Y278226D01*
Y277774D01*
X373696Y277324D01*
X373779Y276880D01*
X373904Y276446D01*
X374068Y276025D01*
X374124Y275921D01*
X374197Y275826D01*
X374283Y275745D01*
X374381Y275678D01*
X374488Y275627D01*
X374583Y275598D01*
Y270877D01*
X374567Y270857D01*
X374168Y270207D01*
X373877Y269502D01*
X373698Y268760D01*
X373639Y268000D01*
X373698Y267240D01*
X373877Y266498D01*
X374168Y265793D01*
X374567Y265143D01*
X374583Y265123D01*
Y260877D01*
X374567Y260857D01*
X374168Y260207D01*
X373877Y259502D01*
X373698Y258760D01*
X373639Y258000D01*
X373698Y257240D01*
X373877Y256498D01*
X374168Y255793D01*
X374567Y255143D01*
X374583Y255123D01*
Y250877D01*
X374567Y250857D01*
X374168Y250207D01*
X373877Y249502D01*
X373698Y248760D01*
X373639Y248000D01*
X373698Y247240D01*
X373877Y246498D01*
X374168Y245793D01*
X374567Y245143D01*
X374583Y245123D01*
Y234877D01*
X374567Y234857D01*
X374168Y234207D01*
X373877Y233502D01*
X373698Y232760D01*
X373639Y232000D01*
X373698Y231240D01*
X373877Y230498D01*
X374168Y229793D01*
X374567Y229143D01*
X374583Y229123D01*
Y224398D01*
X374489Y224370D01*
X374382Y224319D01*
X374285Y224252D01*
X374199Y224171D01*
X374127Y224077D01*
X374073Y223973D01*
X373904Y223554D01*
X373779Y223120D01*
X373696Y222676D01*
X373654Y222226D01*
Y221774D01*
X373696Y221324D01*
X373779Y220880D01*
X373904Y220446D01*
X374068Y220025D01*
X374124Y219921D01*
X374197Y219826D01*
X374283Y219745D01*
X374381Y219678D01*
X374488Y219627D01*
X374583Y219598D01*
Y214877D01*
X374567Y214857D01*
X374168Y214207D01*
X373877Y213502D01*
X373698Y212760D01*
X373639Y212000D01*
X373698Y211240D01*
X373877Y210498D01*
X374168Y209793D01*
X374567Y209143D01*
X374583Y209123D01*
Y204877D01*
X374567Y204857D01*
X374168Y204207D01*
X373877Y203502D01*
X373698Y202760D01*
X373639Y202000D01*
X373698Y201240D01*
X373877Y200498D01*
X374168Y199793D01*
X374567Y199143D01*
X374583Y199123D01*
Y189440D01*
G37*
G36*
X359417D02*X357284D01*
Y217494D01*
X357475Y217568D01*
X357579Y217624D01*
X357674Y217697D01*
X357755Y217783D01*
X357822Y217881D01*
X357873Y217988D01*
X357907Y218101D01*
X357922Y218219D01*
X357919Y218338D01*
X357898Y218454D01*
X357858Y218566D01*
X357801Y218670D01*
X357729Y218764D01*
X357643Y218846D01*
X357545Y218913D01*
X357438Y218964D01*
X357324Y218998D01*
X357284Y219003D01*
Y225001D01*
X357324Y225006D01*
X357437Y225039D01*
X357543Y225090D01*
X357641Y225157D01*
X357726Y225238D01*
X357798Y225332D01*
X357855Y225435D01*
X357894Y225547D01*
X357916Y225663D01*
X357919Y225781D01*
X357903Y225898D01*
X357870Y226011D01*
X357819Y226118D01*
X357752Y226215D01*
X357671Y226301D01*
X357577Y226373D01*
X357473Y226427D01*
X357284Y226503D01*
Y253735D01*
X357287Y253736D01*
X357355Y253775D01*
X357416Y253825D01*
X357469Y253883D01*
X357511Y253950D01*
X357674Y254274D01*
X357803Y254614D01*
X357901Y254964D01*
X357967Y255322D01*
X358000Y255684D01*
Y256048D01*
X357967Y256410D01*
X357901Y256768D01*
X357803Y257118D01*
X357674Y257458D01*
X357515Y257785D01*
X357472Y257851D01*
X357419Y257910D01*
X357357Y257960D01*
X357288Y257999D01*
X357284Y258001D01*
Y359978D01*
X358657Y358805D01*
X359417Y358340D01*
Y224402D01*
X359399Y224407D01*
X359281Y224422D01*
X359162Y224419D01*
X359046Y224398D01*
X358934Y224358D01*
X358830Y224301D01*
X358736Y224229D01*
X358654Y224143D01*
X358587Y224045D01*
X358536Y223938D01*
X358502Y223824D01*
X358487Y223707D01*
X358490Y223588D01*
X358512Y223472D01*
X358553Y223361D01*
X358670Y223072D01*
X358756Y222772D01*
X358814Y222466D01*
X358843Y222156D01*
Y221844D01*
X358814Y221534D01*
X358756Y221228D01*
X358670Y220928D01*
X358557Y220638D01*
X358515Y220527D01*
X358494Y220411D01*
X358490Y220293D01*
X358506Y220176D01*
X358539Y220063D01*
X358590Y219957D01*
X358657Y219859D01*
X358738Y219774D01*
X358832Y219702D01*
X358935Y219645D01*
X359047Y219606D01*
X359163Y219584D01*
X359281Y219581D01*
X359398Y219597D01*
X359417Y219602D01*
Y189440D01*
G37*
G36*
X357284Y390440D02*X378493D01*
Y377307D01*
X377986Y378134D01*
X376576Y379785D01*
X374925Y381195D01*
X373073Y382330D01*
X371067Y383161D01*
X368956Y383667D01*
X366791Y383838D01*
X364626Y383667D01*
X362515Y383161D01*
X360509Y382330D01*
X358657Y381195D01*
X357284Y380022D01*
Y390440D01*
G37*
G36*
Y226503D02*X357054Y226596D01*
X356620Y226721D01*
X356176Y226804D01*
X355726Y226846D01*
X355274D01*
X354824Y226804D01*
X354380Y226721D01*
X354002Y226612D01*
Y251866D01*
X354182D01*
X354544Y251899D01*
X354902Y251965D01*
X355252Y252063D01*
X355592Y252192D01*
X355919Y252352D01*
X355985Y252394D01*
X356044Y252448D01*
X356094Y252509D01*
X356133Y252578D01*
X356161Y252652D01*
X356177Y252729D01*
X356181Y252808D01*
X356173Y252887D01*
X356152Y252964D01*
X356120Y253036D01*
X356077Y253102D01*
X356024Y253161D01*
X355962Y253211D01*
X355893Y253250D01*
X355819Y253278D01*
X355742Y253295D01*
X355663Y253299D01*
X355584Y253290D01*
X355507Y253269D01*
X355436Y253236D01*
X355193Y253113D01*
X354938Y253017D01*
X354676Y252943D01*
X354408Y252894D01*
X354136Y252869D01*
X354002D01*
Y258863D01*
X354136D01*
X354408Y258838D01*
X354676Y258789D01*
X354938Y258716D01*
X355193Y258619D01*
X355437Y258499D01*
X355509Y258466D01*
X355584Y258445D01*
X355663Y258437D01*
X355741Y258441D01*
X355818Y258457D01*
X355892Y258485D01*
X355960Y258524D01*
X356021Y258574D01*
X356074Y258632D01*
X356117Y258698D01*
X356149Y258770D01*
X356170Y258846D01*
X356178Y258924D01*
X356174Y259003D01*
X356158Y259080D01*
X356130Y259153D01*
X356091Y259221D01*
X356042Y259283D01*
X355983Y259335D01*
X355917Y259377D01*
X355592Y259540D01*
X355252Y259670D01*
X354902Y259767D01*
X354544Y259833D01*
X354182Y259866D01*
X354002D01*
Y364828D01*
X354461Y363718D01*
X355596Y361866D01*
X357006Y360215D01*
X357284Y359978D01*
Y258001D01*
X357214Y258027D01*
X357137Y258044D01*
X357058Y258048D01*
X356979Y258039D01*
X356903Y258018D01*
X356830Y257986D01*
X356764Y257943D01*
X356705Y257890D01*
X356656Y257828D01*
X356616Y257759D01*
X356588Y257685D01*
X356572Y257608D01*
X356568Y257529D01*
X356576Y257450D01*
X356597Y257374D01*
X356630Y257302D01*
X356753Y257059D01*
X356850Y256804D01*
X356923Y256542D01*
X356972Y256274D01*
X356997Y256002D01*
Y255730D01*
X356972Y255459D01*
X356923Y255191D01*
X356850Y254928D01*
X356753Y254674D01*
X356633Y254429D01*
X356600Y254358D01*
X356579Y254282D01*
X356571Y254203D01*
X356575Y254125D01*
X356591Y254048D01*
X356619Y253974D01*
X356658Y253906D01*
X356707Y253845D01*
X356766Y253792D01*
X356832Y253749D01*
X356904Y253717D01*
X356980Y253696D01*
X357058Y253688D01*
X357136Y253692D01*
X357213Y253708D01*
X357284Y253735D01*
Y226503D01*
G37*
G36*
Y219003D02*X357207Y219013D01*
X357088Y219010D01*
X356972Y218988D01*
X356861Y218947D01*
X356572Y218830D01*
X356272Y218744D01*
X355966Y218686D01*
X355656Y218657D01*
X355344D01*
X355034Y218686D01*
X354728Y218744D01*
X354428Y218830D01*
X354138Y218943D01*
X354027Y218985D01*
X354002Y218990D01*
Y225007D01*
X354028Y225012D01*
X354139Y225053D01*
X354428Y225170D01*
X354728Y225256D01*
X355034Y225314D01*
X355344Y225343D01*
X355656D01*
X355966Y225314D01*
X356272Y225256D01*
X356572Y225170D01*
X356862Y225057D01*
X356973Y225015D01*
X357089Y224994D01*
X357207Y224990D01*
X357284Y225001D01*
Y219003D01*
G37*
G36*
Y189440D02*X354002D01*
Y217388D01*
X354380Y217279D01*
X354824Y217196D01*
X355274Y217154D01*
X355726D01*
X356176Y217196D01*
X356620Y217279D01*
X357054Y217404D01*
X357284Y217494D01*
Y189440D01*
G37*
G36*
X354002Y390440D02*X357284D01*
Y380022D01*
X357006Y379785D01*
X355596Y378134D01*
X354461Y376282D01*
X354002Y375172D01*
Y390440D01*
G37*
G36*
X350716D02*X354002D01*
Y375172D01*
X353630Y374276D01*
X353123Y372165D01*
X352953Y370000D01*
X353123Y367835D01*
X353630Y365724D01*
X354002Y364828D01*
Y259866D01*
X353818D01*
X353456Y259833D01*
X353098Y259767D01*
X352748Y259670D01*
X352408Y259540D01*
X352081Y259381D01*
X352015Y259338D01*
X351956Y259285D01*
X351906Y259223D01*
X351867Y259154D01*
X351839Y259080D01*
X351823Y259003D01*
X351819Y258924D01*
X351827Y258845D01*
X351848Y258769D01*
X351880Y258696D01*
X351923Y258630D01*
X351976Y258571D01*
X352038Y258522D01*
X352107Y258482D01*
X352181Y258454D01*
X352258Y258438D01*
X352337Y258434D01*
X352416Y258442D01*
X352493Y258463D01*
X352564Y258497D01*
X352807Y258619D01*
X353062Y258716D01*
X353324Y258789D01*
X353592Y258838D01*
X353864Y258863D01*
X354002D01*
Y252869D01*
X353864D01*
X353592Y252894D01*
X353324Y252943D01*
X353062Y253017D01*
X352807Y253113D01*
X352563Y253233D01*
X352491Y253266D01*
X352415Y253287D01*
X352337Y253295D01*
X352259Y253291D01*
X352182Y253275D01*
X352108Y253247D01*
X352040Y253208D01*
X351979Y253159D01*
X351926Y253100D01*
X351883Y253034D01*
X351851Y252963D01*
X351830Y252887D01*
X351822Y252808D01*
X351826Y252730D01*
X351842Y252653D01*
X351870Y252579D01*
X351909Y252511D01*
X351958Y252450D01*
X352017Y252397D01*
X352083Y252355D01*
X352408Y252192D01*
X352748Y252063D01*
X353098Y251965D01*
X353456Y251899D01*
X353818Y251866D01*
X354002D01*
Y226612D01*
X353946Y226596D01*
X353525Y226432D01*
X353421Y226376D01*
X353326Y226303D01*
X353245Y226217D01*
X353178Y226119D01*
X353127Y226012D01*
X353093Y225899D01*
X353078Y225781D01*
X353081Y225662D01*
X353102Y225546D01*
X353142Y225434D01*
X353199Y225330D01*
X353271Y225236D01*
X353357Y225154D01*
X353455Y225087D01*
X353562Y225036D01*
X353676Y225002D01*
X353793Y224987D01*
X353912Y224990D01*
X354002Y225007D01*
Y218990D01*
X353911Y219006D01*
X353793Y219010D01*
X353676Y218994D01*
X353563Y218961D01*
X353457Y218910D01*
X353359Y218843D01*
X353274Y218762D01*
X353202Y218668D01*
X353145Y218565D01*
X353106Y218453D01*
X353084Y218337D01*
X353081Y218219D01*
X353097Y218102D01*
X353130Y217989D01*
X353181Y217882D01*
X353248Y217785D01*
X353329Y217699D01*
X353423Y217627D01*
X353527Y217573D01*
X353946Y217404D01*
X354002Y217388D01*
Y189440D01*
X350716D01*
Y221215D01*
X350779Y220880D01*
X350904Y220446D01*
X351068Y220025D01*
X351124Y219921D01*
X351197Y219826D01*
X351283Y219745D01*
X351381Y219678D01*
X351488Y219627D01*
X351601Y219593D01*
X351719Y219578D01*
X351838Y219581D01*
X351954Y219602D01*
X352066Y219642D01*
X352170Y219699D01*
X352264Y219771D01*
X352346Y219857D01*
X352413Y219955D01*
X352464Y220062D01*
X352498Y220176D01*
X352513Y220293D01*
X352510Y220412D01*
X352488Y220528D01*
X352447Y220639D01*
X352330Y220928D01*
X352244Y221228D01*
X352186Y221534D01*
X352157Y221844D01*
Y222156D01*
X352186Y222466D01*
X352244Y222772D01*
X352330Y223072D01*
X352443Y223362D01*
X352485Y223473D01*
X352506Y223589D01*
X352510Y223707D01*
X352494Y223824D01*
X352461Y223937D01*
X352410Y224043D01*
X352343Y224141D01*
X352262Y224226D01*
X352168Y224298D01*
X352065Y224355D01*
X351953Y224394D01*
X351837Y224416D01*
X351719Y224419D01*
X351602Y224403D01*
X351489Y224370D01*
X351382Y224319D01*
X351285Y224252D01*
X351199Y224171D01*
X351127Y224077D01*
X351073Y223973D01*
X350904Y223554D01*
X350779Y223120D01*
X350716Y222785D01*
Y253731D01*
X350786Y253705D01*
X350863Y253689D01*
X350942Y253685D01*
X351021Y253693D01*
X351097Y253714D01*
X351170Y253746D01*
X351236Y253789D01*
X351295Y253843D01*
X351344Y253904D01*
X351384Y253973D01*
X351412Y254047D01*
X351428Y254124D01*
X351432Y254203D01*
X351424Y254282D01*
X351403Y254359D01*
X351370Y254430D01*
X351247Y254674D01*
X351150Y254928D01*
X351077Y255191D01*
X351028Y255459D01*
X351003Y255730D01*
Y256002D01*
X351028Y256274D01*
X351077Y256542D01*
X351150Y256804D01*
X351247Y257059D01*
X351367Y257304D01*
X351400Y257375D01*
X351421Y257451D01*
X351429Y257529D01*
X351425Y257607D01*
X351409Y257685D01*
X351381Y257758D01*
X351342Y257826D01*
X351293Y257888D01*
X351234Y257940D01*
X351168Y257983D01*
X351096Y258016D01*
X351020Y258036D01*
X350942Y258044D01*
X350864Y258041D01*
X350787Y258024D01*
X350716Y257998D01*
Y273357D01*
X350982Y273584D01*
X351306Y273963D01*
X351566Y274388D01*
X351757Y274848D01*
X351873Y275332D01*
X351902Y275829D01*
X351873Y276326D01*
X351757Y276810D01*
X351566Y277271D01*
X351306Y277695D01*
X350982Y278074D01*
X350716Y278301D01*
Y390440D01*
G37*
G36*
Y189440D02*X342433D01*
Y267404D01*
X347823Y272793D01*
X348240Y272693D01*
X348737Y272654D01*
X349234Y272693D01*
X349718Y272809D01*
X350178Y273000D01*
X350603Y273260D01*
X350716Y273357D01*
Y257998D01*
X350713Y257996D01*
X350645Y257957D01*
X350584Y257908D01*
X350531Y257849D01*
X350489Y257783D01*
X350326Y257458D01*
X350197Y257118D01*
X350099Y256768D01*
X350033Y256410D01*
X350000Y256048D01*
Y255684D01*
X350033Y255322D01*
X350099Y254964D01*
X350197Y254614D01*
X350326Y254274D01*
X350485Y253948D01*
X350528Y253881D01*
X350581Y253822D01*
X350643Y253773D01*
X350712Y253733D01*
X350716Y253731D01*
Y222785D01*
X350696Y222676D01*
X350654Y222226D01*
Y221774D01*
X350696Y221324D01*
X350716Y221215D01*
Y189440D01*
G37*
G36*
X342433Y390440D02*X350716D01*
Y278301D01*
X350603Y278398D01*
X350178Y278658D01*
X349718Y278849D01*
X349234Y278965D01*
X348737Y279004D01*
X348240Y278965D01*
X347756Y278849D01*
X347296Y278658D01*
X346871Y278398D01*
X346492Y278074D01*
X346168Y277695D01*
X345908Y277271D01*
X345717Y276810D01*
X345601Y276326D01*
X345562Y275829D01*
X345601Y275332D01*
X345701Y274915D01*
X342433Y271646D01*
Y275817D01*
X342502Y275834D01*
X343207Y276126D01*
X343857Y276524D01*
X344438Y277020D01*
X344933Y277600D01*
X345332Y278250D01*
X345623Y278955D01*
X345802Y279697D01*
X345846Y280457D01*
X345802Y281218D01*
X345623Y281959D01*
X345332Y282664D01*
X344933Y283315D01*
X344438Y283895D01*
X343857Y284390D01*
X343207Y284789D01*
X342502Y285081D01*
X342433Y285097D01*
Y285817D01*
X342502Y285834D01*
X343207Y286126D01*
X343857Y286524D01*
X344438Y287020D01*
X344933Y287600D01*
X345332Y288250D01*
X345623Y288955D01*
X345802Y289697D01*
X345846Y290457D01*
X345802Y291218D01*
X345623Y291959D01*
X345332Y292664D01*
X344933Y293315D01*
X344438Y293895D01*
X343857Y294390D01*
X343207Y294789D01*
X342502Y295081D01*
X342433Y295097D01*
Y390440D01*
G37*
G36*
X337502Y252495D02*X337580Y252528D01*
X338005Y252788D01*
X338384Y253112D01*
X338707Y253490D01*
X338968Y253915D01*
X339158Y254376D01*
X339275Y254860D01*
X339304Y255357D01*
X339275Y255853D01*
X339158Y256338D01*
X338968Y256798D01*
X338707Y257223D01*
X338384Y257602D01*
X338005Y257925D01*
X337639Y258150D01*
Y262609D01*
X342433Y267404D01*
Y189440D01*
X337502D01*
Y252495D01*
G37*
G36*
Y277091D02*X337562Y277020D01*
X338143Y276524D01*
X338793Y276126D01*
X339498Y275834D01*
X340240Y275656D01*
X341000Y275596D01*
X341760Y275656D01*
X342433Y275817D01*
Y271646D01*
X337502Y266715D01*
Y277091D01*
G37*
G36*
Y287091D02*X337562Y287020D01*
X338143Y286524D01*
X338793Y286126D01*
X339498Y285834D01*
X340240Y285656D01*
X341000Y285596D01*
X341760Y285656D01*
X342433Y285817D01*
Y285097D01*
X341760Y285259D01*
X341000Y285318D01*
X340240Y285259D01*
X339498Y285081D01*
X338793Y284789D01*
X338143Y284390D01*
X337562Y283895D01*
X337502Y283823D01*
Y287091D01*
G37*
G36*
X340784Y390440D02*X342433D01*
Y295097D01*
X341760Y295259D01*
X341000Y295318D01*
X340784Y295301D01*
Y323869D01*
X340787Y323870D01*
X340855Y323909D01*
X340916Y323958D01*
X340969Y324017D01*
X341011Y324083D01*
X341174Y324408D01*
X341303Y324748D01*
X341401Y325098D01*
X341467Y325456D01*
X341500Y325818D01*
Y326182D01*
X341467Y326544D01*
X341401Y326902D01*
X341303Y327252D01*
X341174Y327592D01*
X341015Y327919D01*
X340972Y327985D01*
X340919Y328044D01*
X340857Y328094D01*
X340788Y328133D01*
X340784Y328135D01*
Y390440D01*
G37*
G36*
X337502D02*X340784D01*
Y328135D01*
X340714Y328161D01*
X340637Y328177D01*
X340558Y328181D01*
X340479Y328173D01*
X340403Y328152D01*
X340330Y328120D01*
X340264Y328077D01*
X340205Y328024D01*
X340156Y327962D01*
X340116Y327893D01*
X340088Y327819D01*
X340072Y327742D01*
X340068Y327663D01*
X340076Y327584D01*
X340097Y327507D01*
X340130Y327436D01*
X340253Y327193D01*
X340350Y326938D01*
X340423Y326676D01*
X340472Y326408D01*
X340497Y326136D01*
Y325864D01*
X340472Y325592D01*
X340423Y325324D01*
X340350Y325062D01*
X340253Y324807D01*
X340133Y324563D01*
X340100Y324491D01*
X340079Y324416D01*
X340071Y324337D01*
X340075Y324259D01*
X340091Y324182D01*
X340119Y324108D01*
X340158Y324040D01*
X340207Y323979D01*
X340266Y323926D01*
X340332Y323883D01*
X340404Y323851D01*
X340480Y323830D01*
X340558Y323822D01*
X340636Y323826D01*
X340713Y323842D01*
X340784Y323869D01*
Y295301D01*
X340240Y295259D01*
X339498Y295081D01*
X338793Y294789D01*
X338143Y294390D01*
X337562Y293895D01*
X337502Y293823D01*
Y322000D01*
X337682D01*
X338044Y322033D01*
X338402Y322099D01*
X338752Y322197D01*
X339092Y322326D01*
X339419Y322485D01*
X339485Y322528D01*
X339544Y322581D01*
X339594Y322643D01*
X339633Y322712D01*
X339661Y322786D01*
X339677Y322863D01*
X339681Y322942D01*
X339673Y323021D01*
X339652Y323097D01*
X339620Y323170D01*
X339577Y323236D01*
X339524Y323295D01*
X339462Y323344D01*
X339393Y323384D01*
X339319Y323412D01*
X339242Y323428D01*
X339163Y323432D01*
X339084Y323424D01*
X339007Y323403D01*
X338936Y323370D01*
X338693Y323247D01*
X338438Y323150D01*
X338176Y323077D01*
X337908Y323028D01*
X337636Y323003D01*
X337502D01*
Y328997D01*
X337636D01*
X337908Y328972D01*
X338176Y328923D01*
X338438Y328850D01*
X338693Y328753D01*
X338937Y328633D01*
X339009Y328600D01*
X339084Y328579D01*
X339163Y328571D01*
X339241Y328575D01*
X339318Y328591D01*
X339392Y328619D01*
X339460Y328658D01*
X339521Y328707D01*
X339574Y328766D01*
X339617Y328832D01*
X339649Y328904D01*
X339670Y328980D01*
X339678Y329058D01*
X339674Y329136D01*
X339658Y329213D01*
X339630Y329287D01*
X339591Y329355D01*
X339542Y329416D01*
X339483Y329469D01*
X339417Y329511D01*
X339092Y329674D01*
X338752Y329803D01*
X338402Y329901D01*
X338044Y329967D01*
X337682Y330000D01*
X337502D01*
Y390440D01*
G37*
G36*
X334216Y252836D02*X334272Y252788D01*
X334697Y252528D01*
X335157Y252337D01*
X335642Y252221D01*
X336139Y252182D01*
X336635Y252221D01*
X337120Y252337D01*
X337502Y252495D01*
Y189440D01*
X334216D01*
Y252836D01*
G37*
G36*
Y390440D02*X337502D01*
Y330000D01*
X337318D01*
X336956Y329967D01*
X336598Y329901D01*
X336248Y329803D01*
X335908Y329674D01*
X335581Y329515D01*
X335515Y329472D01*
X335456Y329419D01*
X335406Y329357D01*
X335367Y329288D01*
X335339Y329214D01*
X335323Y329137D01*
X335319Y329058D01*
X335327Y328979D01*
X335348Y328903D01*
X335380Y328830D01*
X335423Y328764D01*
X335476Y328705D01*
X335538Y328656D01*
X335607Y328616D01*
X335681Y328588D01*
X335758Y328572D01*
X335837Y328568D01*
X335916Y328576D01*
X335993Y328597D01*
X336064Y328630D01*
X336307Y328753D01*
X336562Y328850D01*
X336824Y328923D01*
X337092Y328972D01*
X337364Y328997D01*
X337502D01*
Y323003D01*
X337364D01*
X337092Y323028D01*
X336824Y323077D01*
X336562Y323150D01*
X336307Y323247D01*
X336063Y323367D01*
X335991Y323400D01*
X335915Y323421D01*
X335837Y323429D01*
X335759Y323425D01*
X335682Y323409D01*
X335608Y323381D01*
X335540Y323342D01*
X335479Y323293D01*
X335426Y323234D01*
X335383Y323168D01*
X335351Y323096D01*
X335330Y323020D01*
X335322Y322942D01*
X335326Y322864D01*
X335342Y322787D01*
X335370Y322713D01*
X335409Y322645D01*
X335458Y322584D01*
X335517Y322531D01*
X335583Y322489D01*
X335908Y322326D01*
X336248Y322197D01*
X336598Y322099D01*
X336956Y322033D01*
X337318Y322000D01*
X337502D01*
Y293823D01*
X337067Y293315D01*
X336668Y292664D01*
X336377Y291959D01*
X336198Y291218D01*
X336139Y290457D01*
X336198Y289697D01*
X336377Y288955D01*
X336668Y288250D01*
X337067Y287600D01*
X337502Y287091D01*
Y283823D01*
X337067Y283315D01*
X336668Y282664D01*
X336377Y281959D01*
X336198Y281218D01*
X336139Y280457D01*
X336198Y279697D01*
X336377Y278955D01*
X336668Y278250D01*
X337067Y277600D01*
X337502Y277091D01*
Y266715D01*
X335119Y264333D01*
X335075Y264295D01*
X334921Y264115D01*
X334798Y263914D01*
X334708Y263696D01*
X334652Y263466D01*
X334652Y263466D01*
X334634Y263231D01*
X334639Y263172D01*
Y258150D01*
X334272Y257925D01*
X334216Y257877D01*
Y276831D01*
X334438Y277020D01*
X334933Y277600D01*
X335332Y278250D01*
X335623Y278955D01*
X335802Y279697D01*
X335846Y280457D01*
X335802Y281218D01*
X335623Y281959D01*
X335332Y282664D01*
X334933Y283315D01*
X334438Y283895D01*
X334216Y284084D01*
Y286831D01*
X334438Y287020D01*
X334933Y287600D01*
X335332Y288250D01*
X335623Y288955D01*
X335802Y289697D01*
X335846Y290457D01*
X335802Y291218D01*
X335623Y291959D01*
X335332Y292664D01*
X334933Y293315D01*
X334438Y293895D01*
X334216Y294084D01*
Y323865D01*
X334286Y323839D01*
X334363Y323823D01*
X334442Y323819D01*
X334521Y323827D01*
X334597Y323848D01*
X334670Y323880D01*
X334736Y323923D01*
X334795Y323976D01*
X334844Y324038D01*
X334884Y324107D01*
X334912Y324181D01*
X334928Y324258D01*
X334932Y324337D01*
X334924Y324416D01*
X334903Y324493D01*
X334870Y324564D01*
X334747Y324807D01*
X334650Y325062D01*
X334577Y325324D01*
X334528Y325592D01*
X334503Y325864D01*
Y326136D01*
X334528Y326408D01*
X334577Y326676D01*
X334650Y326938D01*
X334747Y327193D01*
X334867Y327437D01*
X334900Y327509D01*
X334921Y327585D01*
X334929Y327663D01*
X334925Y327741D01*
X334909Y327818D01*
X334881Y327892D01*
X334842Y327960D01*
X334793Y328021D01*
X334734Y328074D01*
X334668Y328117D01*
X334596Y328149D01*
X334520Y328170D01*
X334442Y328178D01*
X334364Y328174D01*
X334287Y328158D01*
X334216Y328131D01*
Y390440D01*
G37*
G36*
X322493D02*X334216D01*
Y328131D01*
X334213Y328130D01*
X334145Y328091D01*
X334084Y328042D01*
X334031Y327983D01*
X333989Y327917D01*
X333826Y327592D01*
X333697Y327252D01*
X333599Y326902D01*
X333533Y326544D01*
X333500Y326182D01*
Y325818D01*
X333533Y325456D01*
X333599Y325098D01*
X333697Y324748D01*
X333826Y324408D01*
X333985Y324081D01*
X334028Y324015D01*
X334081Y323956D01*
X334143Y323906D01*
X334212Y323867D01*
X334216Y323865D01*
Y294084D01*
X333857Y294390D01*
X333207Y294789D01*
X332502Y295081D01*
X331760Y295259D01*
X331000Y295318D01*
X330240Y295259D01*
X329498Y295081D01*
X328793Y294789D01*
X328143Y294390D01*
X327562Y293895D01*
X327067Y293315D01*
X326668Y292664D01*
X326377Y291959D01*
X326198Y291218D01*
X326139Y290457D01*
X326198Y289697D01*
X326377Y288955D01*
X326668Y288250D01*
X327067Y287600D01*
X327562Y287020D01*
X328143Y286524D01*
X328793Y286126D01*
X329498Y285834D01*
X330240Y285656D01*
X331000Y285596D01*
X331760Y285656D01*
X332502Y285834D01*
X333207Y286126D01*
X333857Y286524D01*
X334216Y286831D01*
Y284084D01*
X333857Y284390D01*
X333207Y284789D01*
X332502Y285081D01*
X331760Y285259D01*
X331000Y285318D01*
X330240Y285259D01*
X329498Y285081D01*
X328793Y284789D01*
X328143Y284390D01*
X327562Y283895D01*
X327067Y283315D01*
X326668Y282664D01*
X326377Y281959D01*
X326198Y281218D01*
X326139Y280457D01*
X326198Y279697D01*
X326377Y278955D01*
X326668Y278250D01*
X327067Y277600D01*
X327562Y277020D01*
X328143Y276524D01*
X328793Y276126D01*
X329498Y275834D01*
X330240Y275656D01*
X331000Y275596D01*
X331760Y275656D01*
X332502Y275834D01*
X333207Y276126D01*
X333857Y276524D01*
X334216Y276831D01*
Y257877D01*
X333893Y257602D01*
X333570Y257223D01*
X333310Y256798D01*
X333119Y256338D01*
X333003Y255853D01*
X332963Y255357D01*
X333003Y254860D01*
X333119Y254376D01*
X333310Y253915D01*
X333570Y253490D01*
X333893Y253112D01*
X334216Y252836D01*
Y189440D01*
X322493D01*
Y320244D01*
X322832Y320642D01*
X323161Y321178D01*
X323402Y321760D01*
X323549Y322372D01*
X323586Y323000D01*
X323549Y323628D01*
X323402Y324240D01*
X323161Y324822D01*
X322832Y325358D01*
X322493Y325756D01*
Y347639D01*
X322500Y347639D01*
X323260Y347698D01*
X324002Y347877D01*
X324707Y348168D01*
X325357Y348567D01*
X325938Y349062D01*
X326433Y349643D01*
X326832Y350293D01*
X327123Y350998D01*
X327302Y351740D01*
X327346Y352500D01*
X327302Y353260D01*
X327123Y354002D01*
X326832Y354707D01*
X326433Y355357D01*
X325938Y355938D01*
X325357Y356433D01*
X324707Y356832D01*
X324002Y357123D01*
X323260Y357302D01*
X322500Y357361D01*
X322493Y357361D01*
Y390440D01*
G37*
G36*
Y189440D02*X314080D01*
Y313251D01*
X319836Y319007D01*
X320213Y319037D01*
X320826Y319184D01*
X321407Y319425D01*
X321944Y319754D01*
X322423Y320163D01*
X322493Y320244D01*
Y189440D01*
G37*
G36*
X314080Y390440D02*X322493D01*
Y357361D01*
X321740Y357302D01*
X320998Y357123D01*
X320293Y356832D01*
X319643Y356433D01*
X319062Y355938D01*
X318567Y355357D01*
X318168Y354707D01*
X317877Y354002D01*
X317698Y353260D01*
X317639Y352500D01*
X317698Y351740D01*
X317877Y350998D01*
X318168Y350293D01*
X318567Y349643D01*
X319062Y349062D01*
X319643Y348567D01*
X320293Y348168D01*
X320998Y347877D01*
X321740Y347698D01*
X322493Y347639D01*
Y325756D01*
X322423Y325837D01*
X321944Y326246D01*
X321407Y326575D01*
X320826Y326816D01*
X320213Y326963D01*
X319586Y327012D01*
X318958Y326963D01*
X318346Y326816D01*
X317764Y326575D01*
X317227Y326246D01*
X316749Y325837D01*
X316340Y325358D01*
X316011Y324822D01*
X315770Y324240D01*
X315623Y323628D01*
X315593Y323250D01*
X314080Y321736D01*
Y347909D01*
X314707Y348168D01*
X315357Y348567D01*
X315938Y349062D01*
X316433Y349643D01*
X316832Y350293D01*
X317123Y350998D01*
X317302Y351740D01*
X317346Y352500D01*
X317302Y353260D01*
X317123Y354002D01*
X316832Y354707D01*
X316433Y355357D01*
X315938Y355938D01*
X315357Y356433D01*
X314707Y356832D01*
X314080Y357091D01*
Y390440D01*
G37*
G36*
X306284Y278366D02*X306337Y278176D01*
X306386Y277908D01*
X306411Y277636D01*
Y277364D01*
X306386Y277092D01*
X306337Y276824D01*
X306284Y276634D01*
Y278366D01*
G37*
G36*
Y308719D02*X306764Y308425D01*
X307346Y308184D01*
X307958Y308037D01*
X308586Y307988D01*
X309213Y308037D01*
X309826Y308184D01*
X310407Y308425D01*
X310944Y308754D01*
X311423Y309163D01*
X311832Y309642D01*
X312161Y310178D01*
X312402Y310760D01*
X312549Y311372D01*
X312571Y311742D01*
X314080Y313251D01*
Y189440D01*
X306284D01*
Y236699D01*
X306478Y236780D01*
X306903Y237040D01*
X307281Y237364D01*
X307605Y237742D01*
X307865Y238167D01*
X308056Y238627D01*
X308172Y239112D01*
X308202Y239609D01*
X308172Y240105D01*
X308056Y240590D01*
X307865Y241050D01*
X307605Y241475D01*
X307281Y241854D01*
X306903Y242177D01*
X306478Y242438D01*
X306284Y242518D01*
Y246000D01*
X307379D01*
X307464Y245914D01*
X307364Y245497D01*
X307325Y245000D01*
X307364Y244503D01*
X307480Y244019D01*
X307671Y243559D01*
X307931Y243134D01*
X308255Y242755D01*
X308634Y242431D01*
X309059Y242171D01*
X309519Y241980D01*
X310003Y241864D01*
X310500Y241825D01*
X310997Y241864D01*
X311481Y241980D01*
X311941Y242171D01*
X312366Y242431D01*
X312745Y242755D01*
X313069Y243134D01*
X313329Y243559D01*
X313520Y244019D01*
X313636Y244503D01*
X313665Y245000D01*
X313636Y245497D01*
X313520Y245981D01*
X313329Y246441D01*
X313069Y246866D01*
X312745Y247245D01*
X312366Y247569D01*
X311941Y247829D01*
X311481Y248020D01*
X310997Y248136D01*
X310500Y248175D01*
X310003Y248136D01*
X309586Y248036D01*
X309102Y248519D01*
X309064Y248564D01*
X308884Y248717D01*
X308683Y248841D01*
X308465Y248931D01*
X308235Y248986D01*
X308000Y249005D01*
X307941Y249000D01*
X306284D01*
Y253326D01*
X306287Y253327D01*
X306355Y253366D01*
X306416Y253415D01*
X306469Y253474D01*
X306511Y253541D01*
X306674Y253865D01*
X306803Y254205D01*
X306901Y254555D01*
X306967Y254913D01*
X307000Y255275D01*
Y255639D01*
X306967Y256001D01*
X306901Y256359D01*
X306803Y256709D01*
X306674Y257049D01*
X306515Y257376D01*
X306472Y257442D01*
X306419Y257501D01*
X306357Y257551D01*
X306288Y257590D01*
X306284Y257592D01*
Y275366D01*
X306318Y275351D01*
X306394Y275330D01*
X306472Y275322D01*
X306551Y275326D01*
X306628Y275342D01*
X306701Y275370D01*
X306769Y275409D01*
X306831Y275458D01*
X306883Y275517D01*
X306925Y275583D01*
X307088Y275908D01*
X307218Y276248D01*
X307315Y276598D01*
X307381Y276956D01*
X307414Y277318D01*
Y277682D01*
X307381Y278044D01*
X307315Y278402D01*
X307218Y278752D01*
X307088Y279092D01*
X306929Y279419D01*
X306886Y279485D01*
X306833Y279544D01*
X306771Y279594D01*
X306702Y279633D01*
X306628Y279661D01*
X306551Y279677D01*
X306472Y279681D01*
X306393Y279673D01*
X306317Y279652D01*
X306284Y279638D01*
Y308719D01*
G37*
G36*
Y390440D02*X314080D01*
Y357091D01*
X314002Y357123D01*
X313260Y357302D01*
X312500Y357361D01*
X311740Y357302D01*
X310998Y357123D01*
X310293Y356832D01*
X309643Y356433D01*
X309062Y355938D01*
X308567Y355357D01*
X308168Y354707D01*
X307877Y354002D01*
X307698Y353260D01*
X307639Y352500D01*
X307698Y351740D01*
X307877Y350998D01*
X308168Y350293D01*
X308567Y349643D01*
X309062Y349062D01*
X309643Y348567D01*
X310293Y348168D01*
X310998Y347877D01*
X311740Y347698D01*
X312500Y347639D01*
X313260Y347698D01*
X314002Y347877D01*
X314080Y347909D01*
Y321736D01*
X308336Y315993D01*
X307958Y315963D01*
X307346Y315816D01*
X306764Y315575D01*
X306284Y315281D01*
Y349468D01*
X306433Y349643D01*
X306832Y350293D01*
X307123Y350998D01*
X307302Y351740D01*
X307346Y352500D01*
X307302Y353260D01*
X307123Y354002D01*
X306832Y354707D01*
X306433Y355357D01*
X306284Y355532D01*
Y390440D01*
G37*
G36*
Y242518D02*X306017Y242628D01*
X305533Y242745D01*
X305036Y242784D01*
X304540Y242745D01*
X304122Y242644D01*
X303002Y243765D01*
Y246000D01*
X306284D01*
Y242518D01*
G37*
G36*
Y189440D02*X303002D01*
Y237184D01*
X303170Y237040D01*
X303595Y236780D01*
X304055Y236589D01*
X304540Y236473D01*
X305036Y236434D01*
X305533Y236473D01*
X306017Y236589D01*
X306284Y236699D01*
Y189440D01*
G37*
G36*
Y315281D02*X306227Y315246D01*
X305749Y314837D01*
X305340Y314358D01*
X305011Y313822D01*
X304770Y313240D01*
X304623Y312628D01*
X304573Y312000D01*
X304623Y311372D01*
X304770Y310760D01*
X305011Y310178D01*
X305340Y309642D01*
X305749Y309163D01*
X306227Y308754D01*
X306284Y308719D01*
Y279638D01*
X306244Y279620D01*
X306178Y279577D01*
X306119Y279524D01*
X306070Y279462D01*
X306030Y279393D01*
X306002Y279319D01*
X305986Y279242D01*
X305982Y279163D01*
X305990Y279084D01*
X306011Y279007D01*
X306045Y278936D01*
X306167Y278693D01*
X306264Y278438D01*
X306284Y278366D01*
Y276634D01*
X306264Y276562D01*
X306167Y276307D01*
X306047Y276063D01*
X306014Y275991D01*
X305993Y275916D01*
X305985Y275837D01*
X305989Y275759D01*
X306005Y275682D01*
X306033Y275608D01*
X306072Y275540D01*
X306122Y275479D01*
X306180Y275426D01*
X306246Y275383D01*
X306284Y275366D01*
Y257592D01*
X306214Y257618D01*
X306137Y257635D01*
X306058Y257639D01*
X305979Y257630D01*
X305903Y257609D01*
X305830Y257577D01*
X305764Y257534D01*
X305705Y257481D01*
X305656Y257419D01*
X305616Y257350D01*
X305588Y257276D01*
X305572Y257199D01*
X305568Y257120D01*
X305576Y257041D01*
X305597Y256965D01*
X305630Y256893D01*
X305753Y256650D01*
X305850Y256395D01*
X305923Y256133D01*
X305972Y255865D01*
X305997Y255593D01*
Y255321D01*
X305972Y255050D01*
X305923Y254782D01*
X305850Y254519D01*
X305753Y254264D01*
X305633Y254020D01*
X305600Y253949D01*
X305579Y253873D01*
X305571Y253794D01*
X305575Y253716D01*
X305591Y253639D01*
X305619Y253565D01*
X305658Y253497D01*
X305707Y253436D01*
X305766Y253383D01*
X305832Y253340D01*
X305904Y253308D01*
X305980Y253287D01*
X306058Y253279D01*
X306136Y253283D01*
X306213Y253299D01*
X306284Y253326D01*
Y249000D01*
X303035D01*
X303002Y249034D01*
Y251457D01*
X303182D01*
X303544Y251490D01*
X303902Y251556D01*
X304252Y251654D01*
X304592Y251783D01*
X304919Y251943D01*
X304985Y251985D01*
X305044Y252038D01*
X305094Y252100D01*
X305133Y252169D01*
X305161Y252243D01*
X305177Y252320D01*
X305181Y252399D01*
X305173Y252478D01*
X305152Y252555D01*
X305120Y252627D01*
X305077Y252693D01*
X305024Y252752D01*
X304962Y252802D01*
X304893Y252841D01*
X304819Y252869D01*
X304742Y252885D01*
X304663Y252889D01*
X304584Y252881D01*
X304507Y252860D01*
X304436Y252827D01*
X304193Y252704D01*
X303938Y252607D01*
X303676Y252534D01*
X303408Y252485D01*
X303136Y252460D01*
X303002D01*
Y258454D01*
X303136D01*
X303408Y258429D01*
X303676Y258380D01*
X303938Y258307D01*
X304193Y258210D01*
X304437Y258090D01*
X304509Y258057D01*
X304584Y258036D01*
X304663Y258028D01*
X304741Y258032D01*
X304818Y258048D01*
X304892Y258076D01*
X304960Y258115D01*
X305021Y258165D01*
X305074Y258223D01*
X305117Y258289D01*
X305149Y258361D01*
X305170Y258437D01*
X305178Y258515D01*
X305174Y258593D01*
X305158Y258671D01*
X305130Y258744D01*
X305091Y258812D01*
X305042Y258874D01*
X304983Y258926D01*
X304917Y258968D01*
X304592Y259131D01*
X304252Y259260D01*
X303902Y259358D01*
X303544Y259424D01*
X303182Y259457D01*
X303002D01*
Y273521D01*
X303232Y273500D01*
X303596D01*
X303958Y273533D01*
X304316Y273599D01*
X304666Y273697D01*
X305006Y273826D01*
X305333Y273985D01*
X305399Y274028D01*
X305458Y274081D01*
X305508Y274143D01*
X305547Y274212D01*
X305575Y274286D01*
X305592Y274363D01*
X305596Y274442D01*
X305587Y274521D01*
X305567Y274597D01*
X305534Y274670D01*
X305491Y274736D01*
X305438Y274795D01*
X305376Y274844D01*
X305307Y274884D01*
X305233Y274912D01*
X305156Y274928D01*
X305077Y274932D01*
X304998Y274924D01*
X304922Y274903D01*
X304850Y274870D01*
X304607Y274747D01*
X304352Y274650D01*
X304090Y274577D01*
X303822Y274528D01*
X303550Y274503D01*
X303278D01*
X303007Y274528D01*
X303002Y274529D01*
Y280471D01*
X303007Y280472D01*
X303278Y280497D01*
X303550D01*
X303822Y280472D01*
X304090Y280423D01*
X304352Y280350D01*
X304607Y280253D01*
X304852Y280133D01*
X304923Y280100D01*
X304999Y280079D01*
X305077Y280071D01*
X305156Y280075D01*
X305233Y280091D01*
X305306Y280119D01*
X305374Y280158D01*
X305436Y280207D01*
X305488Y280266D01*
X305531Y280332D01*
X305564Y280404D01*
X305584Y280480D01*
X305593Y280558D01*
X305589Y280636D01*
X305572Y280713D01*
X305544Y280787D01*
X305505Y280855D01*
X305456Y280916D01*
X305397Y280969D01*
X305331Y281011D01*
X305006Y281174D01*
X304666Y281303D01*
X304316Y281401D01*
X303958Y281467D01*
X303596Y281500D01*
X303232D01*
X303002Y281479D01*
Y347678D01*
X303260Y347698D01*
X304002Y347877D01*
X304707Y348168D01*
X305357Y348567D01*
X305938Y349062D01*
X306284Y349468D01*
Y315281D01*
G37*
G36*
X303002Y390440D02*X306284D01*
Y355532D01*
X305938Y355938D01*
X305357Y356433D01*
X304707Y356832D01*
X304002Y357123D01*
X303260Y357302D01*
X303002Y357322D01*
Y390440D01*
G37*
G36*
Y249034D02*X300330Y251705D01*
Y253478D01*
X300344Y253495D01*
X300384Y253564D01*
X300412Y253638D01*
X300428Y253715D01*
X300432Y253794D01*
X300424Y253873D01*
X300403Y253950D01*
X300370Y254021D01*
X300330Y254099D01*
Y256820D01*
X300367Y256895D01*
X300400Y256966D01*
X300421Y257042D01*
X300429Y257120D01*
X300425Y257198D01*
X300409Y257275D01*
X300381Y257349D01*
X300342Y257417D01*
X300330Y257432D01*
Y269312D01*
X300569Y269591D01*
X300829Y270016D01*
X301020Y270476D01*
X301136Y270960D01*
X301165Y271457D01*
X301136Y271954D01*
X301020Y272438D01*
X300829Y272899D01*
X300569Y273323D01*
X300330Y273602D01*
Y275320D01*
X300356Y275319D01*
X300435Y275327D01*
X300512Y275348D01*
X300584Y275380D01*
X300650Y275423D01*
X300709Y275476D01*
X300759Y275538D01*
X300798Y275607D01*
X300826Y275681D01*
X300843Y275758D01*
X300847Y275837D01*
X300838Y275916D01*
X300817Y275993D01*
X300784Y276064D01*
X300661Y276307D01*
X300565Y276562D01*
X300491Y276824D01*
X300442Y277092D01*
X300417Y277364D01*
Y277636D01*
X300442Y277908D01*
X300491Y278176D01*
X300565Y278438D01*
X300661Y278693D01*
X300781Y278937D01*
X300814Y279009D01*
X300835Y279085D01*
X300843Y279163D01*
X300839Y279241D01*
X300823Y279318D01*
X300795Y279392D01*
X300756Y279460D01*
X300707Y279521D01*
X300648Y279574D01*
X300582Y279617D01*
X300511Y279649D01*
X300435Y279670D01*
X300356Y279678D01*
X300330Y279677D01*
Y348153D01*
X300998Y347877D01*
X301740Y347698D01*
X302500Y347639D01*
X303002Y347678D01*
Y281479D01*
X302870Y281467D01*
X302513Y281401D01*
X302162Y281303D01*
X301822Y281174D01*
X301496Y281015D01*
X301429Y280972D01*
X301370Y280919D01*
X301321Y280857D01*
X301281Y280788D01*
X301253Y280714D01*
X301237Y280637D01*
X301233Y280558D01*
X301241Y280479D01*
X301262Y280403D01*
X301294Y280330D01*
X301337Y280264D01*
X301391Y280205D01*
X301452Y280156D01*
X301521Y280116D01*
X301595Y280088D01*
X301672Y280072D01*
X301752Y280068D01*
X301830Y280076D01*
X301907Y280097D01*
X301978Y280130D01*
X302222Y280253D01*
X302476Y280350D01*
X302739Y280423D01*
X303002Y280471D01*
Y274529D01*
X302739Y274577D01*
X302476Y274650D01*
X302222Y274747D01*
X301977Y274867D01*
X301906Y274900D01*
X301830Y274921D01*
X301751Y274929D01*
X301673Y274925D01*
X301596Y274909D01*
X301522Y274881D01*
X301454Y274842D01*
X301393Y274793D01*
X301340Y274734D01*
X301297Y274668D01*
X301265Y274596D01*
X301244Y274520D01*
X301236Y274442D01*
X301240Y274364D01*
X301256Y274287D01*
X301284Y274213D01*
X301323Y274145D01*
X301373Y274084D01*
X301431Y274031D01*
X301498Y273989D01*
X301822Y273826D01*
X302162Y273697D01*
X302513Y273599D01*
X302870Y273533D01*
X303002Y273521D01*
Y259457D01*
X302818D01*
X302456Y259424D01*
X302098Y259358D01*
X301748Y259260D01*
X301408Y259131D01*
X301081Y258972D01*
X301015Y258929D01*
X300956Y258876D01*
X300906Y258814D01*
X300867Y258745D01*
X300839Y258671D01*
X300823Y258594D01*
X300819Y258515D01*
X300827Y258436D01*
X300848Y258360D01*
X300880Y258287D01*
X300923Y258221D01*
X300976Y258162D01*
X301038Y258113D01*
X301107Y258073D01*
X301181Y258045D01*
X301258Y258029D01*
X301337Y258025D01*
X301416Y258033D01*
X301493Y258054D01*
X301564Y258088D01*
X301807Y258210D01*
X302062Y258307D01*
X302324Y258380D01*
X302592Y258429D01*
X302864Y258454D01*
X303002D01*
Y252460D01*
X302864D01*
X302592Y252485D01*
X302324Y252534D01*
X302062Y252607D01*
X301807Y252704D01*
X301563Y252824D01*
X301491Y252857D01*
X301415Y252878D01*
X301337Y252886D01*
X301259Y252882D01*
X301182Y252866D01*
X301108Y252838D01*
X301040Y252799D01*
X300979Y252750D01*
X300926Y252691D01*
X300883Y252625D01*
X300851Y252554D01*
X300830Y252478D01*
X300822Y252399D01*
X300826Y252321D01*
X300842Y252244D01*
X300870Y252170D01*
X300909Y252102D01*
X300958Y252041D01*
X301017Y251988D01*
X301083Y251946D01*
X301408Y251783D01*
X301748Y251654D01*
X302098Y251556D01*
X302456Y251490D01*
X302818Y251457D01*
X303002D01*
Y249034D01*
G37*
G36*
Y243765D02*X300330Y246436D01*
Y247462D01*
X301312Y246481D01*
X301350Y246436D01*
X301530Y246283D01*
X301731Y246159D01*
X301949Y246069D01*
X302179Y246014D01*
X302414Y245995D01*
X302473Y246000D01*
X303002D01*
Y243765D01*
G37*
G36*
Y189440D02*X300330D01*
Y242193D01*
X302000Y240523D01*
X301900Y240105D01*
X301861Y239609D01*
X301900Y239112D01*
X302017Y238627D01*
X302207Y238167D01*
X302467Y237742D01*
X302791Y237364D01*
X303002Y237184D01*
Y189440D01*
G37*
G36*
X300330Y390440D02*X303002D01*
Y357322D01*
X302500Y357361D01*
X301740Y357302D01*
X300998Y357123D01*
X300330Y356847D01*
Y390440D01*
G37*
G36*
Y254099D02*X300247Y254264D01*
X300150Y254519D01*
X300077Y254782D01*
X300028Y255050D01*
X300003Y255321D01*
Y255593D01*
X300028Y255865D01*
X300077Y256133D01*
X300150Y256395D01*
X300247Y256650D01*
X300330Y256820D01*
Y254099D01*
G37*
G36*
X291000Y260207D02*Y257473D01*
X290995Y257414D01*
X291014Y257179D01*
X291069Y256949D01*
X291159Y256731D01*
X291283Y256530D01*
X291436Y256350D01*
X291481Y256312D01*
X300330Y247462D01*
Y246436D01*
X290000Y256766D01*
Y261053D01*
X290255Y260755D01*
X290634Y260431D01*
X291000Y260207D01*
G37*
G36*
X300330Y189440D02*X282495D01*
Y244990D01*
X282519Y244980D01*
X283003Y244864D01*
X283500Y244825D01*
X283997Y244864D01*
X284481Y244980D01*
X284941Y245171D01*
X285366Y245431D01*
X285745Y245755D01*
X286069Y246134D01*
X286329Y246559D01*
X286520Y247019D01*
X286636Y247503D01*
X286665Y248000D01*
X286636Y248497D01*
X286520Y248981D01*
X286329Y249441D01*
X286069Y249866D01*
X285745Y250245D01*
X285366Y250569D01*
X284941Y250829D01*
X284481Y251020D01*
X283997Y251136D01*
X283500Y251175D01*
X283003Y251136D01*
X282519Y251020D01*
X282495Y251010D01*
Y274957D01*
X292379D01*
X294964Y272372D01*
X294864Y271954D01*
X294825Y271457D01*
X294864Y270960D01*
X294980Y270476D01*
X295171Y270016D01*
X295431Y269591D01*
X295755Y269212D01*
X296134Y268888D01*
X296559Y268628D01*
X297019Y268437D01*
X297503Y268321D01*
X298000Y268282D01*
X298497Y268321D01*
X298981Y268437D01*
X299441Y268628D01*
X299866Y268888D01*
X300245Y269212D01*
X300330Y269312D01*
Y257432D01*
X300293Y257479D01*
X300234Y257531D01*
X300168Y257574D01*
X300096Y257606D01*
X300020Y257627D01*
X299942Y257635D01*
X299864Y257632D01*
X299787Y257615D01*
X299713Y257587D01*
X299645Y257548D01*
X299584Y257499D01*
X299531Y257440D01*
X299489Y257374D01*
X299326Y257049D01*
X299197Y256709D01*
X299099Y256359D01*
X299033Y256001D01*
X299000Y255639D01*
Y255275D01*
X299033Y254913D01*
X299099Y254555D01*
X299197Y254205D01*
X299326Y253865D01*
X299485Y253539D01*
X299528Y253472D01*
X299581Y253413D01*
X299643Y253364D01*
X299712Y253324D01*
X299786Y253296D01*
X299863Y253280D01*
X299942Y253276D01*
X300021Y253284D01*
X300097Y253305D01*
X300170Y253337D01*
X300236Y253380D01*
X300295Y253434D01*
X300330Y253478D01*
Y251705D01*
X294000Y258035D01*
Y260207D01*
X294366Y260431D01*
X294745Y260755D01*
X295069Y261134D01*
X295329Y261559D01*
X295520Y262019D01*
X295636Y262503D01*
X295665Y263000D01*
X295636Y263497D01*
X295520Y263981D01*
X295329Y264441D01*
X295069Y264866D01*
X294745Y265245D01*
X294366Y265569D01*
X293941Y265829D01*
X293481Y266020D01*
X292997Y266136D01*
X292500Y266175D01*
X292003Y266136D01*
X291519Y266020D01*
X291059Y265829D01*
X290634Y265569D01*
X290255Y265245D01*
X290000Y264947D01*
Y266176D01*
X290760Y266935D01*
X291177Y266835D01*
X291674Y266796D01*
X292171Y266835D01*
X292655Y266951D01*
X293115Y267142D01*
X293540Y267402D01*
X293919Y267726D01*
X294243Y268105D01*
X294503Y268529D01*
X294694Y268990D01*
X294810Y269474D01*
X294839Y269971D01*
X294810Y270468D01*
X294694Y270952D01*
X294503Y271412D01*
X294243Y271837D01*
X293919Y272216D01*
X293540Y272540D01*
X293115Y272800D01*
X292655Y272991D01*
X292171Y273107D01*
X291674Y273146D01*
X291177Y273107D01*
X290693Y272991D01*
X290233Y272800D01*
X289808Y272540D01*
X289429Y272216D01*
X289105Y271837D01*
X288845Y271412D01*
X288654Y270952D01*
X288538Y270468D01*
X288499Y269971D01*
X288538Y269474D01*
X288638Y269056D01*
X287481Y267899D01*
X287436Y267861D01*
X287283Y267681D01*
X287159Y267480D01*
X287069Y267262D01*
X287014Y267032D01*
X287014Y267032D01*
X286995Y266797D01*
X287000Y266738D01*
Y256204D01*
X286995Y256145D01*
X287014Y255910D01*
X287069Y255680D01*
X287159Y255462D01*
X287283Y255260D01*
X287436Y255081D01*
X287481Y255043D01*
X300330Y242193D01*
Y189440D01*
G37*
G36*
X296194Y390440D02*X300330D01*
Y356847D01*
X300293Y356832D01*
X299643Y356433D01*
X299062Y355938D01*
X298567Y355357D01*
X298168Y354707D01*
X297877Y354002D01*
X297698Y353260D01*
X297639Y352500D01*
X297698Y351740D01*
X297877Y350998D01*
X298168Y350293D01*
X298567Y349643D01*
X299062Y349062D01*
X299643Y348567D01*
X300293Y348168D01*
X300330Y348153D01*
Y279677D01*
X300278Y279674D01*
X300201Y279658D01*
X300127Y279630D01*
X300059Y279591D01*
X299998Y279542D01*
X299945Y279483D01*
X299903Y279417D01*
X299740Y279092D01*
X299611Y278752D01*
X299513Y278402D01*
X299447Y278044D01*
X299414Y277682D01*
Y277318D01*
X299447Y276956D01*
X299513Y276598D01*
X299611Y276248D01*
X299740Y275908D01*
X299900Y275581D01*
X299942Y275515D01*
X299996Y275456D01*
X300057Y275406D01*
X300126Y275367D01*
X300200Y275339D01*
X300277Y275323D01*
X300330Y275320D01*
Y273602D01*
X300245Y273702D01*
X299866Y274026D01*
X299441Y274286D01*
X298981Y274477D01*
X298497Y274593D01*
X298000Y274632D01*
X297503Y274593D01*
X297086Y274493D01*
X296194Y275384D01*
Y323477D01*
X296269Y323500D01*
X296340Y323534D01*
X296404Y323579D01*
X296461Y323634D01*
X296508Y323697D01*
X296544Y323767D01*
X296650Y324035D01*
X296728Y324313D01*
X296780Y324597D01*
X296806Y324885D01*
Y325174D01*
X296780Y325461D01*
X296728Y325745D01*
X296650Y326023D01*
X296547Y326293D01*
X296510Y326363D01*
X296462Y326426D01*
X296406Y326481D01*
X296341Y326526D01*
X296270Y326561D01*
X296194Y326584D01*
Y349363D01*
X296433Y349643D01*
X296832Y350293D01*
X297123Y350998D01*
X297302Y351740D01*
X297346Y352500D01*
X297302Y353260D01*
X297123Y354002D01*
X296832Y354707D01*
X296433Y355357D01*
X296194Y355637D01*
Y390440D01*
G37*
G36*
Y275384D02*X294194Y277384D01*
Y299477D01*
X294269Y299500D01*
X294340Y299534D01*
X294404Y299579D01*
X294461Y299634D01*
X294508Y299697D01*
X294544Y299767D01*
X294650Y300035D01*
X294728Y300313D01*
X294780Y300597D01*
X294806Y300885D01*
Y301174D01*
X294780Y301461D01*
X294728Y301745D01*
X294650Y302023D01*
X294547Y302293D01*
X294510Y302363D01*
X294462Y302426D01*
X294406Y302481D01*
X294341Y302526D01*
X294270Y302561D01*
X294194Y302584D01*
Y321912D01*
X294357Y321942D01*
X294635Y322020D01*
X294905Y322123D01*
X294975Y322160D01*
X295038Y322208D01*
X295093Y322264D01*
X295138Y322329D01*
X295173Y322400D01*
X295196Y322476D01*
X295207Y322554D01*
X295205Y322633D01*
X295192Y322711D01*
X295166Y322786D01*
X295129Y322856D01*
X295081Y322919D01*
X295024Y322974D01*
X294960Y323019D01*
X294889Y323054D01*
X294813Y323077D01*
X294735Y323088D01*
X294656Y323086D01*
X294578Y323073D01*
X294504Y323045D01*
X294320Y322973D01*
X294194Y322938D01*
Y327121D01*
X294320Y327085D01*
X294504Y327015D01*
X294578Y326988D01*
X294656Y326974D01*
X294734Y326973D01*
X294812Y326984D01*
X294888Y327007D01*
X294958Y327041D01*
X295023Y327086D01*
X295080Y327141D01*
X295127Y327204D01*
X295164Y327273D01*
X295189Y327348D01*
X295203Y327425D01*
X295205Y327504D01*
X295194Y327582D01*
X295171Y327657D01*
X295136Y327728D01*
X295091Y327792D01*
X295036Y327849D01*
X294973Y327896D01*
X294903Y327932D01*
X294635Y328038D01*
X294357Y328116D01*
X294194Y328146D01*
Y347956D01*
X294707Y348168D01*
X295357Y348567D01*
X295938Y349062D01*
X296194Y349363D01*
Y326584D01*
X296194Y326584D01*
X296116Y326595D01*
X296037Y326594D01*
X295959Y326580D01*
X295884Y326554D01*
X295814Y326517D01*
X295751Y326469D01*
X295696Y326413D01*
X295651Y326348D01*
X295616Y326277D01*
X295593Y326201D01*
X295582Y326123D01*
X295584Y326044D01*
X295597Y325966D01*
X295625Y325892D01*
X295697Y325708D01*
X295750Y325518D01*
X295786Y325324D01*
X295804Y325128D01*
Y324930D01*
X295786Y324734D01*
X295750Y324540D01*
X295697Y324350D01*
X295627Y324166D01*
X295600Y324092D01*
X295586Y324014D01*
X295585Y323936D01*
X295596Y323858D01*
X295619Y323782D01*
X295653Y323712D01*
X295698Y323647D01*
X295753Y323591D01*
X295816Y323543D01*
X295885Y323506D01*
X295960Y323481D01*
X296037Y323467D01*
X296116Y323466D01*
X296194Y323477D01*
X296194Y323477D01*
Y275384D01*
G37*
G36*
X294194Y390440D02*X296194D01*
Y355637D01*
X295938Y355938D01*
X295357Y356433D01*
X294707Y356832D01*
X294194Y357044D01*
Y390440D01*
G37*
G36*
Y277384D02*X294102Y277476D01*
X294064Y277521D01*
X293884Y277674D01*
X293683Y277798D01*
X293465Y277888D01*
X293235Y277943D01*
X293000Y277962D01*
X292941Y277957D01*
X291642D01*
Y297864D01*
X291785D01*
X292073Y297890D01*
X292357Y297942D01*
X292635Y298020D01*
X292905Y298123D01*
X292975Y298160D01*
X293038Y298208D01*
X293093Y298264D01*
X293138Y298329D01*
X293173Y298400D01*
X293196Y298476D01*
X293207Y298554D01*
X293205Y298633D01*
X293192Y298711D01*
X293166Y298786D01*
X293129Y298856D01*
X293081Y298919D01*
X293024Y298974D01*
X292960Y299019D01*
X292889Y299054D01*
X292813Y299077D01*
X292735Y299088D01*
X292656Y299086D01*
X292578Y299073D01*
X292504Y299045D01*
X292320Y298973D01*
X292130Y298920D01*
X291936Y298884D01*
X291740Y298866D01*
X291642D01*
Y303192D01*
X291740D01*
X291936Y303174D01*
X292130Y303139D01*
X292320Y303085D01*
X292504Y303015D01*
X292578Y302988D01*
X292656Y302974D01*
X292734Y302973D01*
X292812Y302984D01*
X292888Y303007D01*
X292958Y303041D01*
X293023Y303086D01*
X293080Y303141D01*
X293127Y303204D01*
X293164Y303273D01*
X293189Y303348D01*
X293203Y303425D01*
X293205Y303504D01*
X293194Y303582D01*
X293171Y303657D01*
X293136Y303728D01*
X293091Y303792D01*
X293036Y303849D01*
X292973Y303896D01*
X292903Y303932D01*
X292635Y304038D01*
X292357Y304116D01*
X292073Y304168D01*
X291785Y304194D01*
X291642D01*
Y323734D01*
X291665Y323782D01*
X291689Y323857D01*
X291700Y323935D01*
X291698Y324014D01*
X291684Y324092D01*
X291657Y324166D01*
X291642Y324205D01*
Y325858D01*
X291655Y325893D01*
X291682Y325966D01*
X291696Y326044D01*
X291697Y326123D01*
X291686Y326201D01*
X291663Y326276D01*
X291642Y326320D01*
Y347722D01*
X291740Y347698D01*
X292500Y347639D01*
X293260Y347698D01*
X294002Y347877D01*
X294194Y347956D01*
Y328146D01*
X294073Y328168D01*
X293785Y328194D01*
X293497D01*
X293209Y328168D01*
X292925Y328116D01*
X292647Y328038D01*
X292377Y327935D01*
X292307Y327898D01*
X292244Y327851D01*
X292189Y327794D01*
X292144Y327729D01*
X292109Y327658D01*
X292086Y327582D01*
X292075Y327504D01*
X292077Y327425D01*
X292090Y327347D01*
X292116Y327272D01*
X292153Y327203D01*
X292201Y327140D01*
X292258Y327085D01*
X292322Y327039D01*
X292393Y327005D01*
X292469Y326981D01*
X292547Y326970D01*
X292626Y326972D01*
X292704Y326986D01*
X292778Y327013D01*
X292962Y327085D01*
X293152Y327139D01*
X293346Y327174D01*
X293542Y327192D01*
X293740D01*
X293936Y327174D01*
X294130Y327139D01*
X294194Y327121D01*
Y322938D01*
X294130Y322920D01*
X293936Y322884D01*
X293740Y322866D01*
X293542D01*
X293346Y322884D01*
X293152Y322920D01*
X292962Y322973D01*
X292777Y323043D01*
X292704Y323070D01*
X292626Y323084D01*
X292547Y323086D01*
X292469Y323075D01*
X292394Y323052D01*
X292323Y323017D01*
X292259Y322972D01*
X292202Y322917D01*
X292155Y322854D01*
X292118Y322785D01*
X292092Y322711D01*
X292079Y322633D01*
X292077Y322554D01*
X292088Y322476D01*
X292111Y322401D01*
X292146Y322330D01*
X292191Y322266D01*
X292246Y322209D01*
X292308Y322162D01*
X292379Y322126D01*
X292647Y322020D01*
X292925Y321942D01*
X293209Y321890D01*
X293497Y321864D01*
X293785D01*
X294073Y321890D01*
X294194Y321912D01*
Y302584D01*
X294194Y302584D01*
X294116Y302595D01*
X294037Y302594D01*
X293959Y302580D01*
X293884Y302554D01*
X293814Y302517D01*
X293751Y302469D01*
X293696Y302413D01*
X293651Y302348D01*
X293616Y302277D01*
X293593Y302201D01*
X293582Y302123D01*
X293584Y302044D01*
X293597Y301966D01*
X293625Y301892D01*
X293697Y301708D01*
X293750Y301518D01*
X293786Y301324D01*
X293804Y301128D01*
Y300930D01*
X293786Y300734D01*
X293750Y300540D01*
X293697Y300350D01*
X293627Y300166D01*
X293600Y300092D01*
X293586Y300014D01*
X293585Y299936D01*
X293596Y299858D01*
X293619Y299782D01*
X293653Y299712D01*
X293698Y299647D01*
X293753Y299591D01*
X293816Y299543D01*
X293885Y299506D01*
X293960Y299481D01*
X294037Y299467D01*
X294116Y299466D01*
X294194Y299477D01*
X294194Y299477D01*
Y277384D01*
G37*
G36*
X291642Y390440D02*X294194D01*
Y357044D01*
X294002Y357123D01*
X293260Y357302D01*
X292500Y357361D01*
X291740Y357302D01*
X291642Y357278D01*
Y390440D01*
G37*
G36*
Y324205D02*X291585Y324350D01*
X291532Y324540D01*
X291496Y324734D01*
X291478Y324930D01*
Y325128D01*
X291496Y325324D01*
X291532Y325518D01*
X291585Y325708D01*
X291642Y325858D01*
Y324205D01*
G37*
G36*
X289088Y349041D02*X289643Y348567D01*
X290293Y348168D01*
X290998Y347877D01*
X291642Y347722D01*
Y326320D01*
X291629Y326347D01*
X291584Y326411D01*
X291529Y326468D01*
X291466Y326515D01*
X291397Y326552D01*
X291322Y326578D01*
X291245Y326591D01*
X291166Y326593D01*
X291088Y326582D01*
X291013Y326559D01*
X290942Y326524D01*
X290878Y326479D01*
X290821Y326424D01*
X290774Y326362D01*
X290738Y326291D01*
X290632Y326023D01*
X290554Y325745D01*
X290502Y325461D01*
X290476Y325174D01*
Y324885D01*
X290502Y324597D01*
X290554Y324313D01*
X290632Y324035D01*
X290735Y323765D01*
X290772Y323695D01*
X290819Y323632D01*
X290876Y323577D01*
X290941Y323532D01*
X291012Y323497D01*
X291088Y323474D01*
X291166Y323463D01*
X291245Y323465D01*
X291323Y323478D01*
X291398Y323504D01*
X291467Y323541D01*
X291531Y323589D01*
X291585Y323646D01*
X291631Y323711D01*
X291642Y323734D01*
Y304194D01*
X291497D01*
X291209Y304168D01*
X290925Y304116D01*
X290647Y304038D01*
X290377Y303935D01*
X290307Y303898D01*
X290244Y303851D01*
X290189Y303794D01*
X290144Y303729D01*
X290109Y303658D01*
X290086Y303582D01*
X290075Y303504D01*
X290077Y303425D01*
X290090Y303347D01*
X290116Y303272D01*
X290153Y303203D01*
X290201Y303140D01*
X290258Y303085D01*
X290322Y303039D01*
X290393Y303005D01*
X290469Y302981D01*
X290547Y302970D01*
X290626Y302972D01*
X290704Y302986D01*
X290778Y303013D01*
X290962Y303085D01*
X291152Y303139D01*
X291346Y303174D01*
X291542Y303192D01*
X291642D01*
Y298866D01*
X291542D01*
X291346Y298884D01*
X291152Y298920D01*
X290962Y298973D01*
X290777Y299043D01*
X290704Y299070D01*
X290626Y299084D01*
X290547Y299086D01*
X290469Y299075D01*
X290394Y299052D01*
X290323Y299017D01*
X290259Y298972D01*
X290202Y298917D01*
X290155Y298854D01*
X290118Y298785D01*
X290092Y298711D01*
X290079Y298633D01*
X290077Y298554D01*
X290088Y298476D01*
X290111Y298401D01*
X290146Y298330D01*
X290191Y298266D01*
X290246Y298209D01*
X290308Y298162D01*
X290379Y298126D01*
X290647Y298020D01*
X290925Y297942D01*
X291209Y297890D01*
X291497Y297864D01*
X291642D01*
Y277957D01*
X289088D01*
Y299474D01*
X289088Y299474D01*
X289166Y299463D01*
X289245Y299465D01*
X289323Y299478D01*
X289398Y299504D01*
X289467Y299541D01*
X289531Y299589D01*
X289585Y299646D01*
X289631Y299711D01*
X289665Y299782D01*
X289689Y299857D01*
X289700Y299935D01*
X289698Y300014D01*
X289684Y300092D01*
X289657Y300166D01*
X289585Y300350D01*
X289532Y300540D01*
X289496Y300734D01*
X289478Y300930D01*
Y301128D01*
X289496Y301324D01*
X289532Y301518D01*
X289585Y301708D01*
X289655Y301893D01*
X289682Y301966D01*
X289696Y302044D01*
X289697Y302123D01*
X289686Y302201D01*
X289663Y302276D01*
X289629Y302347D01*
X289584Y302411D01*
X289529Y302468D01*
X289466Y302515D01*
X289397Y302552D01*
X289322Y302578D01*
X289245Y302591D01*
X289166Y302593D01*
X289088Y302582D01*
X289088Y302582D01*
Y349041D01*
G37*
G36*
Y390440D02*X291642D01*
Y357278D01*
X290998Y357123D01*
X290293Y356832D01*
X289643Y356433D01*
X289088Y355959D01*
Y390440D01*
G37*
G36*
X282495D02*X289088D01*
Y355959D01*
X289062Y355938D01*
X288567Y355357D01*
X288168Y354707D01*
X287877Y354002D01*
X287698Y353260D01*
X287639Y352500D01*
X287698Y351740D01*
X287877Y350998D01*
X288168Y350293D01*
X288567Y349643D01*
X289062Y349062D01*
X289088Y349041D01*
Y302582D01*
X289013Y302559D01*
X288942Y302524D01*
X288878Y302479D01*
X288821Y302424D01*
X288774Y302362D01*
X288738Y302291D01*
X288632Y302023D01*
X288554Y301745D01*
X288502Y301461D01*
X288476Y301174D01*
Y300885D01*
X288502Y300597D01*
X288554Y300313D01*
X288632Y300035D01*
X288735Y299765D01*
X288772Y299695D01*
X288819Y299632D01*
X288876Y299577D01*
X288941Y299532D01*
X289012Y299497D01*
X289088Y299474D01*
Y277957D01*
X282495D01*
Y347639D01*
X282500Y347639D01*
X283260Y347698D01*
X284002Y347877D01*
X284707Y348168D01*
X285357Y348567D01*
X285938Y349062D01*
X286433Y349643D01*
X286832Y350293D01*
X287123Y350998D01*
X287302Y351740D01*
X287346Y352500D01*
X287302Y353260D01*
X287123Y354002D01*
X286832Y354707D01*
X286433Y355357D01*
X285938Y355938D01*
X285357Y356433D01*
X284707Y356832D01*
X284002Y357123D01*
X283260Y357302D01*
X282500Y357361D01*
X282495Y357361D01*
Y390440D01*
G37*
G36*
X265002Y274001D02*X265134Y273888D01*
X265559Y273628D01*
X266019Y273437D01*
X266503Y273321D01*
X267000Y273282D01*
X267497Y273321D01*
X267981Y273437D01*
X268441Y273628D01*
X268866Y273888D01*
X269245Y274212D01*
X269569Y274591D01*
X269793Y274957D01*
X282495D01*
Y251010D01*
X282059Y250829D01*
X281634Y250569D01*
X281255Y250245D01*
X280931Y249866D01*
X280707Y249500D01*
X273379D01*
X273155Y249866D01*
X272831Y250245D01*
X272452Y250569D01*
X272027Y250829D01*
X271567Y251020D01*
X271083Y251136D01*
X270586Y251175D01*
X270089Y251136D01*
X269605Y251020D01*
X269144Y250829D01*
X268720Y250569D01*
X268341Y250245D01*
X268017Y249866D01*
X267757Y249441D01*
X267566Y248981D01*
X267450Y248497D01*
X267411Y248000D01*
X267450Y247503D01*
X267566Y247019D01*
X267757Y246559D01*
X268017Y246134D01*
X268341Y245755D01*
X268720Y245431D01*
X269144Y245171D01*
X269605Y244980D01*
X270089Y244864D01*
X270586Y244825D01*
X271083Y244864D01*
X271567Y244980D01*
X272027Y245171D01*
X272452Y245431D01*
X272831Y245755D01*
X273155Y246134D01*
X273379Y246500D01*
X280707D01*
X280931Y246134D01*
X281255Y245755D01*
X281634Y245431D01*
X282059Y245171D01*
X282495Y244990D01*
Y189440D01*
X265002D01*
Y274001D01*
G37*
G36*
X268284Y390440D02*X282495D01*
Y357361D01*
X281740Y357302D01*
X280998Y357123D01*
X280293Y356832D01*
X279643Y356433D01*
X279062Y355938D01*
X278567Y355357D01*
X278168Y354707D01*
X277877Y354002D01*
X277698Y353260D01*
X277639Y352500D01*
X277698Y351740D01*
X277877Y350998D01*
X278168Y350293D01*
X278567Y349643D01*
X279062Y349062D01*
X279643Y348567D01*
X280293Y348168D01*
X280998Y347877D01*
X281740Y347698D01*
X282495Y347639D01*
Y277957D01*
X269793D01*
X269569Y278323D01*
X269245Y278702D01*
X268866Y279026D01*
X268441Y279286D01*
X268284Y279351D01*
Y317869D01*
X268287Y317870D01*
X268355Y317909D01*
X268416Y317958D01*
X268469Y318017D01*
X268511Y318083D01*
X268674Y318408D01*
X268803Y318748D01*
X268901Y319098D01*
X268967Y319456D01*
X269000Y319818D01*
Y320182D01*
X268967Y320544D01*
X268901Y320902D01*
X268803Y321252D01*
X268674Y321592D01*
X268515Y321919D01*
X268472Y321985D01*
X268419Y322044D01*
X268357Y322094D01*
X268288Y322133D01*
X268284Y322135D01*
Y350105D01*
X268567Y349643D01*
X269062Y349062D01*
X269643Y348567D01*
X270293Y348168D01*
X270998Y347877D01*
X271740Y347698D01*
X272500Y347639D01*
X273260Y347698D01*
X274002Y347877D01*
X274707Y348168D01*
X275357Y348567D01*
X275938Y349062D01*
X276433Y349643D01*
X276832Y350293D01*
X277123Y350998D01*
X277302Y351740D01*
X277346Y352500D01*
X277302Y353260D01*
X277123Y354002D01*
X276832Y354707D01*
X276433Y355357D01*
X275938Y355938D01*
X275357Y356433D01*
X274707Y356832D01*
X274002Y357123D01*
X273260Y357302D01*
X272500Y357361D01*
X271740Y357302D01*
X270998Y357123D01*
X270293Y356832D01*
X269643Y356433D01*
X269062Y355938D01*
X268567Y355357D01*
X268284Y354895D01*
Y390440D01*
G37*
G36*
X265002D02*X268284D01*
Y354895D01*
X268168Y354707D01*
X267877Y354002D01*
X267698Y353260D01*
X267639Y352500D01*
X267698Y351740D01*
X267877Y350998D01*
X268168Y350293D01*
X268284Y350105D01*
Y322135D01*
X268214Y322161D01*
X268137Y322177D01*
X268058Y322181D01*
X267979Y322173D01*
X267903Y322152D01*
X267830Y322120D01*
X267764Y322077D01*
X267705Y322024D01*
X267656Y321962D01*
X267616Y321893D01*
X267588Y321819D01*
X267572Y321742D01*
X267568Y321663D01*
X267576Y321584D01*
X267597Y321507D01*
X267630Y321436D01*
X267753Y321193D01*
X267850Y320938D01*
X267923Y320676D01*
X267972Y320408D01*
X267997Y320136D01*
Y319864D01*
X267972Y319592D01*
X267923Y319324D01*
X267850Y319062D01*
X267753Y318807D01*
X267633Y318563D01*
X267600Y318491D01*
X267579Y318416D01*
X267571Y318337D01*
X267575Y318259D01*
X267591Y318182D01*
X267619Y318108D01*
X267658Y318040D01*
X267707Y317979D01*
X267766Y317926D01*
X267832Y317883D01*
X267904Y317851D01*
X267980Y317830D01*
X268058Y317822D01*
X268136Y317826D01*
X268213Y317842D01*
X268284Y317869D01*
Y279351D01*
X267981Y279477D01*
X267497Y279593D01*
X267000Y279632D01*
X266503Y279593D01*
X266019Y279477D01*
X265559Y279286D01*
X265134Y279026D01*
X265002Y278913D01*
Y316000D01*
X265182D01*
X265544Y316033D01*
X265902Y316099D01*
X266252Y316197D01*
X266592Y316326D01*
X266919Y316485D01*
X266985Y316528D01*
X267044Y316581D01*
X267094Y316643D01*
X267133Y316712D01*
X267161Y316786D01*
X267177Y316863D01*
X267181Y316942D01*
X267173Y317021D01*
X267152Y317097D01*
X267120Y317170D01*
X267077Y317236D01*
X267024Y317295D01*
X266962Y317344D01*
X266893Y317384D01*
X266819Y317412D01*
X266742Y317428D01*
X266663Y317432D01*
X266584Y317424D01*
X266507Y317403D01*
X266436Y317370D01*
X266193Y317247D01*
X265938Y317150D01*
X265676Y317077D01*
X265408Y317028D01*
X265136Y317003D01*
X265002D01*
Y322997D01*
X265136D01*
X265408Y322972D01*
X265676Y322923D01*
X265938Y322850D01*
X266193Y322753D01*
X266437Y322633D01*
X266509Y322600D01*
X266584Y322579D01*
X266663Y322571D01*
X266741Y322575D01*
X266818Y322591D01*
X266892Y322619D01*
X266960Y322658D01*
X267021Y322707D01*
X267074Y322766D01*
X267117Y322832D01*
X267149Y322904D01*
X267170Y322980D01*
X267178Y323058D01*
X267174Y323136D01*
X267158Y323213D01*
X267130Y323287D01*
X267091Y323355D01*
X267042Y323416D01*
X266983Y323469D01*
X266917Y323511D01*
X266592Y323674D01*
X266252Y323803D01*
X265902Y323901D01*
X265544Y323967D01*
X265182Y324000D01*
X265002D01*
Y390440D01*
G37*
G36*
X261716D02*X265002D01*
Y324000D01*
X264818D01*
X264456Y323967D01*
X264098Y323901D01*
X263748Y323803D01*
X263408Y323674D01*
X263081Y323515D01*
X263015Y323472D01*
X262956Y323419D01*
X262906Y323357D01*
X262867Y323288D01*
X262839Y323214D01*
X262823Y323137D01*
X262819Y323058D01*
X262827Y322979D01*
X262848Y322903D01*
X262880Y322830D01*
X262923Y322764D01*
X262976Y322705D01*
X263038Y322656D01*
X263107Y322616D01*
X263181Y322588D01*
X263258Y322572D01*
X263337Y322568D01*
X263416Y322576D01*
X263493Y322597D01*
X263564Y322630D01*
X263807Y322753D01*
X264062Y322850D01*
X264324Y322923D01*
X264592Y322972D01*
X264864Y322997D01*
X265002D01*
Y317003D01*
X264864D01*
X264592Y317028D01*
X264324Y317077D01*
X264062Y317150D01*
X263807Y317247D01*
X263563Y317367D01*
X263491Y317400D01*
X263415Y317421D01*
X263337Y317429D01*
X263259Y317425D01*
X263182Y317409D01*
X263108Y317381D01*
X263040Y317342D01*
X262979Y317293D01*
X262926Y317234D01*
X262883Y317168D01*
X262851Y317096D01*
X262830Y317020D01*
X262822Y316942D01*
X262826Y316864D01*
X262842Y316787D01*
X262870Y316713D01*
X262909Y316645D01*
X262958Y316584D01*
X263017Y316531D01*
X263083Y316489D01*
X263408Y316326D01*
X263748Y316197D01*
X264098Y316099D01*
X264456Y316033D01*
X264818Y316000D01*
X265002D01*
Y278913D01*
X264755Y278702D01*
X264431Y278323D01*
X264171Y277899D01*
X263980Y277438D01*
X263864Y276954D01*
X263825Y276457D01*
X263864Y275960D01*
X263980Y275476D01*
X264171Y275016D01*
X264431Y274591D01*
X264755Y274212D01*
X265002Y274001D01*
Y189440D01*
X261716D01*
Y317865D01*
X261786Y317839D01*
X261863Y317823D01*
X261942Y317819D01*
X262021Y317827D01*
X262097Y317848D01*
X262170Y317880D01*
X262236Y317923D01*
X262295Y317976D01*
X262344Y318038D01*
X262384Y318107D01*
X262412Y318181D01*
X262428Y318258D01*
X262432Y318337D01*
X262424Y318416D01*
X262403Y318493D01*
X262370Y318564D01*
X262247Y318807D01*
X262150Y319062D01*
X262077Y319324D01*
X262028Y319592D01*
X262003Y319864D01*
Y320136D01*
X262028Y320408D01*
X262077Y320676D01*
X262150Y320938D01*
X262247Y321193D01*
X262367Y321437D01*
X262400Y321509D01*
X262421Y321585D01*
X262429Y321663D01*
X262425Y321741D01*
X262409Y321818D01*
X262381Y321892D01*
X262342Y321960D01*
X262293Y322021D01*
X262234Y322074D01*
X262168Y322117D01*
X262096Y322149D01*
X262020Y322170D01*
X261942Y322178D01*
X261864Y322174D01*
X261787Y322158D01*
X261716Y322131D01*
Y390440D01*
G37*
G36*
X260401D02*X261716D01*
Y322131D01*
X261713Y322130D01*
X261645Y322091D01*
X261584Y322042D01*
X261531Y321983D01*
X261489Y321917D01*
X261326Y321592D01*
X261197Y321252D01*
X261099Y320902D01*
X261033Y320544D01*
X261000Y320182D01*
Y319818D01*
X261033Y319456D01*
X261099Y319098D01*
X261197Y318748D01*
X261326Y318408D01*
X261485Y318081D01*
X261528Y318015D01*
X261581Y317956D01*
X261643Y317906D01*
X261712Y317867D01*
X261716Y317865D01*
Y189440D01*
X260401D01*
Y235989D01*
X260426Y236017D01*
X260468Y236083D01*
X260631Y236408D01*
X260760Y236748D01*
X260858Y237098D01*
X260924Y237456D01*
X260957Y237818D01*
Y238182D01*
X260924Y238544D01*
X260858Y238902D01*
X260760Y239252D01*
X260631Y239592D01*
X260472Y239919D01*
X260429Y239985D01*
X260401Y240016D01*
Y300170D01*
X260404Y300171D01*
X260476Y300202D01*
X260543Y300244D01*
X260602Y300296D01*
X260653Y300356D01*
X260691Y300425D01*
X260826Y300722D01*
X260929Y301032D01*
X261003Y301350D01*
X261048Y301674D01*
X261063Y302000D01*
X261048Y302326D01*
X261003Y302650D01*
X260929Y302968D01*
X260826Y303278D01*
X260695Y303577D01*
X260655Y303645D01*
X260604Y303706D01*
X260545Y303758D01*
X260478Y303800D01*
X260405Y303831D01*
X260401Y303833D01*
Y364068D01*
X261036Y365602D01*
X261558Y367774D01*
X261689Y370000D01*
X261558Y372226D01*
X261036Y374398D01*
X260401Y375932D01*
Y390440D01*
G37*
G36*
Y189440D02*X257501D01*
Y234033D01*
X257859Y234099D01*
X258209Y234197D01*
X258549Y234326D01*
X258876Y234485D01*
X258942Y234528D01*
X259001Y234581D01*
X259051Y234643D01*
X259090Y234712D01*
X259118Y234786D01*
X259135Y234863D01*
X259139Y234942D01*
X259130Y235021D01*
X259109Y235097D01*
X259077Y235170D01*
X259034Y235236D01*
X258981Y235295D01*
X258919Y235344D01*
X258850Y235384D01*
X258776Y235412D01*
X258699Y235428D01*
X258620Y235432D01*
X258541Y235424D01*
X258465Y235403D01*
X258393Y235370D01*
X258150Y235247D01*
X257895Y235150D01*
X257633Y235077D01*
X257501Y235053D01*
Y240947D01*
X257633Y240923D01*
X257895Y240850D01*
X258150Y240753D01*
X258395Y240633D01*
X258466Y240600D01*
X258542Y240579D01*
X258620Y240571D01*
X258698Y240575D01*
X258775Y240591D01*
X258849Y240619D01*
X258917Y240658D01*
X258979Y240707D01*
X259031Y240766D01*
X259074Y240832D01*
X259106Y240904D01*
X259127Y240980D01*
X259135Y241058D01*
X259131Y241136D01*
X259115Y241213D01*
X259087Y241287D01*
X259048Y241355D01*
X258999Y241416D01*
X258940Y241469D01*
X258874Y241511D01*
X258549Y241674D01*
X258209Y241803D01*
X257859Y241901D01*
X257501Y241967D01*
Y298437D01*
X257826Y298452D01*
X258150Y298497D01*
X258468Y298571D01*
X258778Y298674D01*
X259077Y298805D01*
X259145Y298845D01*
X259206Y298896D01*
X259258Y298955D01*
X259300Y299022D01*
X259331Y299095D01*
X259351Y299172D01*
X259358Y299250D01*
X259353Y299329D01*
X259335Y299407D01*
X259306Y299480D01*
X259266Y299548D01*
X259215Y299609D01*
X259156Y299661D01*
X259089Y299703D01*
X259016Y299734D01*
X258939Y299754D01*
X258860Y299761D01*
X258781Y299756D01*
X258704Y299738D01*
X258631Y299708D01*
X258418Y299611D01*
X258195Y299537D01*
X257967Y299484D01*
X257734Y299452D01*
X257501Y299441D01*
Y304559D01*
X257734Y304548D01*
X257967Y304516D01*
X258195Y304463D01*
X258418Y304389D01*
X258633Y304295D01*
X258705Y304264D01*
X258782Y304247D01*
X258860Y304242D01*
X258939Y304249D01*
X259015Y304268D01*
X259087Y304299D01*
X259154Y304341D01*
X259213Y304393D01*
X259263Y304454D01*
X259304Y304521D01*
X259333Y304594D01*
X259350Y304671D01*
X259355Y304749D01*
X259348Y304828D01*
X259329Y304904D01*
X259298Y304976D01*
X259256Y305043D01*
X259204Y305102D01*
X259144Y305153D01*
X259075Y305191D01*
X258778Y305326D01*
X258468Y305429D01*
X258150Y305503D01*
X257826Y305548D01*
X257501Y305563D01*
Y359882D01*
X257564Y359936D01*
X259015Y361634D01*
X260181Y363538D01*
X260401Y364068D01*
Y303833D01*
X260328Y303851D01*
X260250Y303858D01*
X260171Y303853D01*
X260093Y303835D01*
X260020Y303806D01*
X259952Y303766D01*
X259891Y303715D01*
X259839Y303656D01*
X259797Y303589D01*
X259766Y303516D01*
X259746Y303439D01*
X259739Y303360D01*
X259744Y303281D01*
X259762Y303204D01*
X259792Y303131D01*
X259889Y302918D01*
X259963Y302695D01*
X260016Y302467D01*
X260048Y302234D01*
X260059Y302000D01*
X260048Y301766D01*
X260016Y301533D01*
X259963Y301305D01*
X259889Y301082D01*
X259795Y300867D01*
X259764Y300795D01*
X259747Y300718D01*
X259742Y300640D01*
X259749Y300561D01*
X259768Y300485D01*
X259799Y300413D01*
X259841Y300346D01*
X259893Y300287D01*
X259954Y300237D01*
X260021Y300196D01*
X260094Y300167D01*
X260171Y300150D01*
X260249Y300145D01*
X260328Y300152D01*
X260401Y300170D01*
Y240016D01*
X260376Y240044D01*
X260314Y240094D01*
X260245Y240133D01*
X260171Y240161D01*
X260094Y240177D01*
X260015Y240181D01*
X259936Y240173D01*
X259860Y240152D01*
X259787Y240120D01*
X259721Y240077D01*
X259662Y240024D01*
X259613Y239962D01*
X259573Y239893D01*
X259545Y239819D01*
X259529Y239742D01*
X259525Y239663D01*
X259533Y239584D01*
X259554Y239507D01*
X259588Y239436D01*
X259710Y239193D01*
X259807Y238938D01*
X259880Y238676D01*
X259929Y238408D01*
X259954Y238136D01*
Y237864D01*
X259929Y237592D01*
X259880Y237324D01*
X259807Y237062D01*
X259710Y236807D01*
X259590Y236563D01*
X259557Y236491D01*
X259536Y236416D01*
X259528Y236337D01*
X259532Y236259D01*
X259548Y236182D01*
X259576Y236108D01*
X259615Y236040D01*
X259665Y235979D01*
X259723Y235926D01*
X259789Y235883D01*
X259861Y235851D01*
X259937Y235830D01*
X260015Y235822D01*
X260093Y235826D01*
X260171Y235842D01*
X260244Y235870D01*
X260312Y235909D01*
X260374Y235958D01*
X260401Y235989D01*
Y189440D01*
G37*
G36*
X257501Y390440D02*X260401D01*
Y375932D01*
X260181Y376462D01*
X259015Y378366D01*
X257564Y380064D01*
X257501Y380118D01*
Y390440D01*
G37*
G36*
X256284Y240923D02*X256550Y240972D01*
X256821Y240997D01*
X257093D01*
X257365Y240972D01*
X257501Y240947D01*
Y235053D01*
X257365Y235028D01*
X257093Y235003D01*
X256821D01*
X256550Y235028D01*
X256284Y235077D01*
Y240923D01*
G37*
G36*
Y298654D02*X256532Y298571D01*
X256850Y298497D01*
X257174Y298452D01*
X257500Y298437D01*
X257501Y298437D01*
Y241967D01*
X257501Y241967D01*
X257139Y242000D01*
X256775D01*
X256413Y241967D01*
X256284Y241943D01*
Y263326D01*
X256287Y263327D01*
X256355Y263366D01*
X256416Y263415D01*
X256469Y263474D01*
X256511Y263540D01*
X256674Y263865D01*
X256803Y264205D01*
X256901Y264555D01*
X256967Y264913D01*
X257000Y265275D01*
Y265639D01*
X256967Y266001D01*
X256901Y266359D01*
X256803Y266709D01*
X256674Y267049D01*
X256515Y267376D01*
X256472Y267442D01*
X256419Y267501D01*
X256357Y267551D01*
X256288Y267590D01*
X256284Y267592D01*
Y298654D01*
G37*
G36*
Y304259D02*X256296Y304262D01*
X256369Y304292D01*
X256582Y304389D01*
X256805Y304463D01*
X257033Y304516D01*
X257266Y304548D01*
X257500Y304559D01*
X257501Y304559D01*
Y299441D01*
X257500Y299441D01*
X257266Y299452D01*
X257033Y299484D01*
X256805Y299537D01*
X256582Y299611D01*
X256367Y299705D01*
X256295Y299736D01*
X256284Y299738D01*
Y304259D01*
G37*
G36*
Y358842D02*X257501Y359882D01*
Y305563D01*
X257500Y305563D01*
X257174Y305548D01*
X256850Y305503D01*
X256532Y305429D01*
X256284Y305346D01*
Y358842D01*
G37*
G36*
X257501Y189440D02*X256284D01*
Y234057D01*
X256413Y234033D01*
X256775Y234000D01*
X257139D01*
X257501Y234033D01*
X257501Y234033D01*
Y189440D01*
G37*
G36*
X256284D02*X254599D01*
Y261787D01*
X254919Y261943D01*
X254985Y261985D01*
X255044Y262038D01*
X255094Y262100D01*
X255133Y262169D01*
X255161Y262243D01*
X255177Y262320D01*
X255181Y262399D01*
X255173Y262478D01*
X255152Y262555D01*
X255120Y262627D01*
X255077Y262693D01*
X255024Y262752D01*
X254962Y262802D01*
X254893Y262841D01*
X254819Y262869D01*
X254742Y262885D01*
X254663Y262889D01*
X254599Y262883D01*
Y268035D01*
X254663Y268028D01*
X254741Y268032D01*
X254818Y268048D01*
X254892Y268076D01*
X254960Y268115D01*
X255021Y268165D01*
X255074Y268223D01*
X255117Y268289D01*
X255149Y268361D01*
X255170Y268437D01*
X255178Y268515D01*
X255174Y268593D01*
X255158Y268671D01*
X255130Y268744D01*
X255091Y268812D01*
X255042Y268874D01*
X254983Y268926D01*
X254917Y268968D01*
X254599Y269128D01*
Y300167D01*
X254672Y300149D01*
X254750Y300142D01*
X254829Y300147D01*
X254907Y300165D01*
X254980Y300194D01*
X255048Y300234D01*
X255109Y300285D01*
X255161Y300344D01*
X255203Y300411D01*
X255234Y300484D01*
X255254Y300561D01*
X255261Y300640D01*
X255256Y300719D01*
X255238Y300796D01*
X255208Y300869D01*
X255111Y301082D01*
X255037Y301305D01*
X254984Y301533D01*
X254952Y301766D01*
X254941Y302000D01*
X254952Y302234D01*
X254984Y302467D01*
X255037Y302695D01*
X255111Y302918D01*
X255205Y303133D01*
X255236Y303205D01*
X255253Y303282D01*
X255258Y303360D01*
X255251Y303439D01*
X255232Y303515D01*
X255201Y303587D01*
X255159Y303654D01*
X255107Y303713D01*
X255046Y303763D01*
X254979Y303804D01*
X254906Y303833D01*
X254829Y303850D01*
X254751Y303855D01*
X254672Y303848D01*
X254599Y303830D01*
Y357709D01*
X255866Y358485D01*
X256284Y358842D01*
Y305346D01*
X256222Y305326D01*
X255923Y305195D01*
X255855Y305155D01*
X255794Y305104D01*
X255742Y305045D01*
X255700Y304978D01*
X255669Y304905D01*
X255649Y304828D01*
X255642Y304750D01*
X255647Y304671D01*
X255665Y304593D01*
X255694Y304520D01*
X255734Y304452D01*
X255785Y304391D01*
X255844Y304339D01*
X255911Y304297D01*
X255984Y304266D01*
X256061Y304246D01*
X256140Y304239D01*
X256219Y304244D01*
X256284Y304259D01*
Y299738D01*
X256218Y299753D01*
X256140Y299758D01*
X256061Y299751D01*
X255985Y299732D01*
X255913Y299701D01*
X255846Y299659D01*
X255787Y299607D01*
X255737Y299546D01*
X255696Y299479D01*
X255667Y299406D01*
X255650Y299329D01*
X255645Y299251D01*
X255652Y299172D01*
X255671Y299096D01*
X255702Y299024D01*
X255744Y298957D01*
X255796Y298898D01*
X255856Y298847D01*
X255925Y298809D01*
X256222Y298674D01*
X256284Y298654D01*
Y267592D01*
X256214Y267618D01*
X256137Y267635D01*
X256058Y267639D01*
X255979Y267630D01*
X255903Y267609D01*
X255830Y267577D01*
X255764Y267534D01*
X255705Y267481D01*
X255656Y267419D01*
X255616Y267350D01*
X255588Y267276D01*
X255572Y267199D01*
X255568Y267120D01*
X255576Y267041D01*
X255597Y266965D01*
X255630Y266893D01*
X255753Y266650D01*
X255850Y266395D01*
X255923Y266133D01*
X255972Y265865D01*
X255997Y265593D01*
Y265321D01*
X255972Y265050D01*
X255923Y264782D01*
X255850Y264519D01*
X255753Y264264D01*
X255633Y264020D01*
X255600Y263949D01*
X255579Y263873D01*
X255571Y263794D01*
X255575Y263716D01*
X255591Y263639D01*
X255619Y263565D01*
X255658Y263497D01*
X255707Y263436D01*
X255766Y263383D01*
X255832Y263340D01*
X255904Y263308D01*
X255980Y263287D01*
X256058Y263279D01*
X256136Y263283D01*
X256213Y263299D01*
X256284Y263326D01*
Y241943D01*
X256055Y241901D01*
X255705Y241803D01*
X255365Y241674D01*
X255039Y241515D01*
X254972Y241472D01*
X254913Y241419D01*
X254864Y241357D01*
X254824Y241288D01*
X254796Y241214D01*
X254780Y241137D01*
X254776Y241058D01*
X254784Y240979D01*
X254805Y240903D01*
X254837Y240830D01*
X254880Y240764D01*
X254934Y240705D01*
X254995Y240656D01*
X255064Y240616D01*
X255138Y240588D01*
X255215Y240572D01*
X255294Y240568D01*
X255373Y240576D01*
X255450Y240597D01*
X255521Y240630D01*
X255764Y240753D01*
X256019Y240850D01*
X256282Y240923D01*
X256284Y240923D01*
Y235077D01*
X256282Y235077D01*
X256019Y235150D01*
X255764Y235247D01*
X255520Y235367D01*
X255449Y235400D01*
X255373Y235421D01*
X255294Y235429D01*
X255216Y235425D01*
X255139Y235409D01*
X255065Y235381D01*
X254997Y235342D01*
X254936Y235293D01*
X254883Y235234D01*
X254840Y235168D01*
X254808Y235096D01*
X254787Y235020D01*
X254779Y234942D01*
X254783Y234864D01*
X254799Y234787D01*
X254827Y234713D01*
X254866Y234645D01*
X254915Y234584D01*
X254974Y234531D01*
X255040Y234489D01*
X255365Y234326D01*
X255705Y234197D01*
X256055Y234099D01*
X256284Y234057D01*
Y189440D01*
G37*
G36*
X253673Y268380D02*X253676Y268380D01*
X253938Y268307D01*
X254193Y268210D01*
X254437Y268090D01*
X254509Y268057D01*
X254584Y268036D01*
X254599Y268035D01*
Y262883D01*
X254584Y262881D01*
X254507Y262860D01*
X254436Y262827D01*
X254193Y262704D01*
X253938Y262607D01*
X253676Y262534D01*
X253673Y262534D01*
Y268380D01*
G37*
G36*
Y357199D02*X253962Y357319D01*
X254599Y357709D01*
Y303830D01*
X254596Y303829D01*
X254524Y303798D01*
X254457Y303756D01*
X254398Y303704D01*
X254347Y303644D01*
X254309Y303575D01*
X254174Y303278D01*
X254071Y302968D01*
X253997Y302650D01*
X253952Y302326D01*
X253937Y302000D01*
X253952Y301674D01*
X253997Y301350D01*
X254071Y301032D01*
X254174Y300722D01*
X254305Y300423D01*
X254345Y300355D01*
X254396Y300294D01*
X254455Y300242D01*
X254522Y300200D01*
X254595Y300169D01*
X254599Y300167D01*
Y269128D01*
X254592Y269131D01*
X254252Y269260D01*
X253902Y269358D01*
X253673Y269400D01*
Y357199D01*
G37*
G36*
X254599Y189440D02*X253673D01*
Y235865D01*
X253743Y235839D01*
X253820Y235823D01*
X253899Y235819D01*
X253978Y235827D01*
X254055Y235848D01*
X254127Y235880D01*
X254193Y235923D01*
X254252Y235976D01*
X254302Y236038D01*
X254341Y236107D01*
X254369Y236181D01*
X254385Y236258D01*
X254389Y236337D01*
X254381Y236416D01*
X254360Y236493D01*
X254327Y236564D01*
X254204Y236807D01*
X254107Y237062D01*
X254034Y237324D01*
X253985Y237592D01*
X253960Y237864D01*
Y238136D01*
X253985Y238408D01*
X254034Y238676D01*
X254107Y238938D01*
X254204Y239193D01*
X254324Y239437D01*
X254357Y239509D01*
X254378Y239585D01*
X254386Y239663D01*
X254382Y239741D01*
X254366Y239818D01*
X254338Y239892D01*
X254299Y239960D01*
X254250Y240021D01*
X254191Y240074D01*
X254125Y240117D01*
X254054Y240149D01*
X253978Y240170D01*
X253899Y240178D01*
X253821Y240174D01*
X253744Y240158D01*
X253673Y240131D01*
Y261514D01*
X253902Y261556D01*
X254252Y261654D01*
X254592Y261783D01*
X254599Y261787D01*
Y189440D01*
G37*
G36*
X253673D02*X249716D01*
Y263322D01*
X249786Y263296D01*
X249863Y263280D01*
X249942Y263276D01*
X250021Y263284D01*
X250097Y263305D01*
X250170Y263337D01*
X250236Y263380D01*
X250295Y263434D01*
X250344Y263495D01*
X250384Y263564D01*
X250412Y263638D01*
X250428Y263715D01*
X250432Y263794D01*
X250424Y263873D01*
X250403Y263950D01*
X250370Y264021D01*
X250247Y264264D01*
X250150Y264519D01*
X250077Y264782D01*
X250028Y265050D01*
X250003Y265321D01*
Y265593D01*
X250028Y265865D01*
X250077Y266133D01*
X250150Y266395D01*
X250247Y266650D01*
X250367Y266895D01*
X250400Y266966D01*
X250421Y267042D01*
X250429Y267120D01*
X250425Y267198D01*
X250409Y267275D01*
X250381Y267349D01*
X250342Y267417D01*
X250293Y267479D01*
X250234Y267531D01*
X250168Y267574D01*
X250096Y267606D01*
X250020Y267627D01*
X249942Y267635D01*
X249864Y267632D01*
X249787Y267615D01*
X249716Y267588D01*
Y355942D01*
X249726Y355942D01*
X251898Y356464D01*
X253673Y357199D01*
Y269400D01*
X253544Y269424D01*
X253182Y269457D01*
X252818D01*
X252456Y269424D01*
X252098Y269358D01*
X251748Y269260D01*
X251408Y269131D01*
X251081Y268972D01*
X251015Y268929D01*
X250956Y268876D01*
X250906Y268814D01*
X250867Y268745D01*
X250839Y268671D01*
X250823Y268594D01*
X250819Y268515D01*
X250827Y268436D01*
X250848Y268360D01*
X250880Y268287D01*
X250923Y268221D01*
X250976Y268162D01*
X251038Y268113D01*
X251107Y268073D01*
X251181Y268045D01*
X251258Y268029D01*
X251337Y268025D01*
X251416Y268033D01*
X251493Y268054D01*
X251564Y268088D01*
X251807Y268210D01*
X252062Y268307D01*
X252324Y268380D01*
X252592Y268429D01*
X252864Y268454D01*
X253136D01*
X253408Y268429D01*
X253673Y268380D01*
Y262534D01*
X253408Y262485D01*
X253136Y262460D01*
X252864D01*
X252592Y262485D01*
X252324Y262534D01*
X252062Y262607D01*
X251807Y262704D01*
X251563Y262824D01*
X251491Y262857D01*
X251415Y262878D01*
X251337Y262886D01*
X251259Y262882D01*
X251182Y262866D01*
X251108Y262838D01*
X251040Y262799D01*
X250979Y262750D01*
X250926Y262691D01*
X250883Y262625D01*
X250851Y262554D01*
X250830Y262478D01*
X250822Y262399D01*
X250826Y262321D01*
X250842Y262244D01*
X250870Y262170D01*
X250909Y262102D01*
X250958Y262041D01*
X251017Y261988D01*
X251083Y261946D01*
X251408Y261783D01*
X251748Y261654D01*
X252098Y261556D01*
X252456Y261490D01*
X252818Y261457D01*
X253182D01*
X253544Y261490D01*
X253673Y261514D01*
Y240131D01*
X253670Y240130D01*
X253602Y240091D01*
X253541Y240042D01*
X253488Y239983D01*
X253446Y239917D01*
X253283Y239592D01*
X253154Y239252D01*
X253056Y238902D01*
X252990Y238544D01*
X252957Y238182D01*
Y237818D01*
X252990Y237456D01*
X253056Y237098D01*
X253154Y236748D01*
X253283Y236408D01*
X253443Y236081D01*
X253485Y236015D01*
X253538Y235956D01*
X253600Y235906D01*
X253669Y235867D01*
X253673Y235865D01*
Y189440D01*
G37*
G36*
X249716D02*X247478D01*
Y355769D01*
X247500Y355767D01*
X249716Y355942D01*
Y267588D01*
X249713Y267587D01*
X249645Y267548D01*
X249584Y267499D01*
X249531Y267440D01*
X249489Y267374D01*
X249326Y267049D01*
X249197Y266709D01*
X249099Y266359D01*
X249033Y266001D01*
X249000Y265639D01*
Y265275D01*
X249033Y264913D01*
X249099Y264555D01*
X249197Y264205D01*
X249326Y263865D01*
X249485Y263539D01*
X249528Y263472D01*
X249581Y263413D01*
X249643Y263364D01*
X249712Y263324D01*
X249716Y263322D01*
Y189440D01*
G37*
G36*
X247478Y390440D02*X257501D01*
Y380118D01*
X255866Y381515D01*
X253962Y382681D01*
X251898Y383536D01*
X249726Y384058D01*
X247500Y384233D01*
X247478Y384231D01*
Y390440D01*
G37*
G36*
X227059D02*X247478D01*
Y384231D01*
X245274Y384058D01*
X243102Y383536D01*
X241038Y382681D01*
X239134Y381515D01*
X237436Y380064D01*
X235985Y378366D01*
X234819Y376462D01*
X233964Y374398D01*
X233442Y372226D01*
X233267Y370000D01*
X233442Y367774D01*
X233964Y365602D01*
X234819Y363538D01*
X235985Y361634D01*
X237436Y359936D01*
X239134Y358485D01*
X241038Y357319D01*
X243102Y356464D01*
X245274Y355942D01*
X247478Y355769D01*
Y189440D01*
X227059D01*
Y390440D01*
G37*
G54D28*X319586Y323000D02*X308586Y312000D01*
G54D29*X283500Y248000D02*X270586D01*
X291674Y269971D02*X288500Y266797D01*
Y256145D01*
X267000Y276457D02*X293000D01*
X288500Y256145D02*X305036Y239609D01*
X292500Y263000D02*Y257414D01*
X302414Y247500D01*
X308000D01*
X310500Y245000D01*
X298000Y271457D03*
X293000Y276457D01*
X348737Y275829D02*X336139Y263231D01*
Y255357D01*
G54D30*X378500Y298000D03*
Y288000D03*
Y278000D03*
X322500Y352500D03*
X312500D03*
X302500D03*
X292500D03*
X282500D03*
X272500D03*
X331000Y290457D03*
Y280457D03*
X341000D03*
Y290457D03*
X378500Y268000D03*
Y258000D03*
Y248000D03*
Y232000D03*
Y222000D03*
Y212000D03*
Y202000D03*
X355500Y222000D03*
G54D31*X291641Y301029D03*
G54D32*X257500Y302000D03*
G54D33*X265000Y320000D03*
G54D31*X293641Y325029D03*
G54D34*X247500Y175511D03*
G54D31*X310500Y245000D03*
X305036Y239609D03*
G54D33*X354000Y255866D03*
G54D31*X336139Y255357D03*
G54D33*X303000Y255457D03*
G54D31*X298000Y271457D03*
G54D33*X303414Y277500D03*
G54D31*X292500Y263000D03*
X291674Y269971D03*
X283500Y248000D03*
X270586D03*
G54D33*X253000Y265457D03*
X256957Y238000D03*
G54D31*X267000Y276457D03*
X348737Y275829D03*
G54D34*X366791Y370000D03*
G54D33*X337500Y326000D03*
X319586Y323000D03*
X308586Y312000D03*
G54D35*G54D36*G54D37*G54D36*G54D38*G54D35*G54D36*G54D37*G54D36*G54D37*G54D36*G54D37*G54D36*G54D37*G54D36*G54D38*G54D37*G54D39*M02*
